<?xml version='1.0' encoding='utf-8'?>
<!DOCTYPE svg PUBLIC '-//W3C//DTD SVG 1.1//EN' 'http://www.w3.org/Graphics/SVG/1.1/DTD/svg11.dtd'>
<svg version="1.1" xmlns="http://www.w3.org/2000/svg" viewBox="0 0 512 512" xmlns:xlink="http://www.w3.org/1999/xlink" enable-background="new 0 0 512 512">
  <g>
    <g>
      <path d="m431.1,93.9h-174.9v-12.7c0-38.7-31.2-70.2-69.6-70.2h-106c-38.4,0-69.6,31.5-69.6,70.2v349.6c0,38.7 31.2,70.2 69.6,70.2h106c38.4,0 69.6-31.5 69.6-70.2v-196.5h174.9c38.5,0 69.9-31.4 69.9-70.5 0-38.5-31.4-69.9-69.9-69.9zm-215.7,336.9c0,16.2-12.9,29.3-28.8,29.3h-106c-15.9,0-28.8-13.2-28.8-29.3v-349.6c0-16.2 12.9-29.3 28.8-29.3h106c15.9,0 28.8,13.2 28.8,29.3v12.8h-44.9c-38.5,0-69.9,31.4-69.9,70.5 0,38.5 31.4,69.9 69.9,69.9h44.9v196.4zm215.7-237.3h-260.6c-16,0-29.1-13-29.1-29.6 0-16 13-29.1 29.1-29.1h260.6c16,0 29.1,13 29.1,29.6-5.68434e-14,16-13.1,29.1-29.1,29.1z"/>
      <path d="m103.3,289.2c-11.3,0-20.4,9.1-20.4,20.4 0,11.3 9.1,20.4 20.4,20.4h9.1v63.8c0,11.3 9.1,20.4 20.4,20.4s20.4-9.1 20.4-20.4v-63.8h10.6c11.3,0 20.4-9.1 20.4-20.4 0-11.3-9.1-20.4-20.4-20.4h-60.5z"/>
    </g>
  </g>
</svg>
