<?xml version="1.0" encoding="UTF-8" standalone="no"?>
<svg
   xmlns:dc="http://purl.org/dc/elements/1.1/"
   xmlns:cc="http://creativecommons.org/ns#"
   xmlns:rdf="http://www.w3.org/1999/02/22-rdf-syntax-ns#"
   xmlns:svg="http://www.w3.org/2000/svg"
   xmlns="http://www.w3.org/2000/svg"
   xmlns:sodipodi="http://sodipodi.sourceforge.net/DTD/sodipodi-0.dtd"
   xmlns:inkscape="http://www.inkscape.org/namespaces/inkscape"
   version="1.1"
   viewBox="0 0 512 512"
   enable-background="new 0 0 512 512"
   id="svg10"
   sodipodi:docname="doorknob.svg"
   inkscape:version="0.92.4 (5da689c313, 2019-01-14)">
  <metadata
     id="metadata16">
    <rdf:RDF>
      <cc:Work
         rdf:about="">
        <dc:format>image/svg+xml</dc:format>
        <dc:type
           rdf:resource="http://purl.org/dc/dcmitype/StillImage" />
      </cc:Work>
    </rdf:RDF>
  </metadata>
  <defs
     id="defs14" />
  <sodipodi:namedview
     pagecolor="#ffffff"
     bordercolor="#666666"
     borderopacity="1"
     objecttolerance="10"
     gridtolerance="10"
     guidetolerance="10"
     inkscape:pageopacity="0"
     inkscape:pageshadow="2"
     inkscape:window-width="1920"
     inkscape:window-height="986"
     id="namedview12"
     showgrid="false"
     inkscape:zoom="0.4609375"
     inkscape:cx="256"
     inkscape:cy="256"
     inkscape:window-x="-11"
     inkscape:window-y="-11"
     inkscape:window-maximized="1"
     inkscape:current-layer="svg10" />
  <g
     id="g8"
     transform="matrix(-1,0,0,1,512,0)">
    <g
       id="g6">
      <path
         d="M 431.1,93.9 H 256.2 V 81.2 C 256.2,42.5 225,11 186.6,11 H 80.6 C 42.2,11 11,42.5 11,81.2 v 349.6 c 0,38.7 31.2,70.2 69.6,70.2 h 106 c 38.4,0 69.6,-31.5 69.6,-70.2 V 234.3 h 174.9 c 38.5,0 69.9,-31.4 69.9,-70.5 0,-38.5 -31.4,-69.9 -69.9,-69.9 z M 215.4,430.8 c 0,16.2 -12.9,29.3 -28.8,29.3 h -106 c -15.9,0 -28.8,-13.2 -28.8,-29.3 V 81.2 C 51.8,65 64.7,51.9 80.6,51.9 h 106 c 15.9,0 28.8,13.2 28.8,29.3 V 94 h -44.9 c -38.5,0 -69.9,31.4 -69.9,70.5 0,38.5 31.4,69.9 69.9,69.9 h 44.9 z M 431.1,193.5 H 170.5 c -16,0 -29.1,-13 -29.1,-29.6 0,-16 13,-29.1 29.1,-29.1 h 260.6 c 16,0 29.1,13 29.1,29.6 0,16 -13.1,29.1 -29.1,29.1 z"
         id="path2"
         inkscape:connector-curvature="0" />
      <path
         d="m 103.3,289.2 c -11.3,0 -20.4,9.1 -20.4,20.4 0,11.3 9.1,20.4 20.4,20.4 h 9.1 v 63.8 c 0,11.3 9.1,20.4 20.4,20.4 11.3,0 20.4,-9.1 20.4,-20.4 V 330 h 10.6 c 11.3,0 20.4,-9.1 20.4,-20.4 0,-11.3 -9.1,-20.4 -20.4,-20.4 z"
         id="path4"
         inkscape:connector-curvature="0" />
    </g>
  </g>
</svg>
