<?xml version="1.0" standalone="no"?>
<!DOCTYPE svg PUBLIC "-//W3C//DTD SVG 20010904//EN"
 "http://www.w3.org/TR/2001/REC-SVG-20010904/DTD/svg10.dtd">
<svg version="1.0" xmlns="http://www.w3.org/2000/svg"
 width="675.000000pt" height="231.000000pt" viewBox="0 0 675.000000 231.000000"
 preserveAspectRatio="xMidYMid meet">
<metadata>
Created by potrace 1.15, written by Peter Selinger 2001-2017
</metadata>
<g transform="translate(0.000000,231.000000) scale(0.100000,-0.100000)"
fill="#000000" stroke="none">
<path d="M4047 2189 c-31 -5 -87 -17 -123 -29 -108 -33 -179 -41 -254 -28 -61
10 -73 10 -126 -9 -38 -14 -82 -21 -125 -21 -49 0 -90 -8 -169 -35 -78 -27
-108 -33 -123 -26 -24 13 -63 4 -167 -39 -132 -54 -382 -132 -426 -132 -7 0
-16 9 -19 20 -3 11 -18 23 -33 26 -15 4 -40 18 -55 31 -39 32 -112 31 -192 -2
-33 -14 -65 -25 -72 -25 -7 0 -36 21 -65 46 -28 26 -72 56 -97 67 -91 41 -274
18 -328 -41 -65 -71 -84 -87 -168 -139 -49 -31 -106 -60 -126 -64 -58 -13
-192 -85 -228 -123 -33 -34 -38 -36 -103 -36 -45 0 -85 7 -120 21 -47 19 -65
20 -158 14 -175 -11 -386 -93 -420 -163 -22 -45 -25 -205 -5 -257 20 -53 79
-107 134 -123 53 -16 138 -15 197 3 27 8 50 15 52 15 1 0 2 -7 2 -15 0 -19 30
-19 73 -1 35 14 101 82 92 95 -7 12 80 81 102 81 65 -1 94 -44 74 -109 -19
-65 -14 -132 15 -189 32 -64 103 -139 141 -148 15 -3 55 -21 88 -39 33 -18 85
-38 115 -44 33 -7 93 -34 150 -68 178 -105 166 -94 190 -175 13 -40 27 -78 32
-85 5 -7 16 -36 24 -65 9 -29 18 -61 21 -70 3 -12 -6 -22 -34 -37 -76 -40
-125 -106 -93 -126 5 -3 10 -26 10 -50 0 -36 5 -48 31 -69 28 -24 38 -26 129
-26 54 0 101 4 105 9 3 5 19 12 35 16 39 9 50 31 50 101 0 45 5 63 21 80 28
30 63 146 62 209 0 75 -22 242 -39 305 -19 67 -59 127 -99 149 -56 30 -140 83
-178 114 -30 23 -36 32 -24 38 23 13 242 39 388 46 152 7 208 -1 354 -48 86
-27 101 -29 335 -34 283 -7 279 -7 386 1 93 6 208 -13 834 -139 347 -70 371
-76 485 -127 124 -55 142 -60 397 -90 132 -15 457 -11 486 7 28 17 52 70 52
113 l0 30 101 0 c90 0 114 -4 203 -34 56 -19 116 -38 135 -41 18 -4 52 -16 75
-26 22 -10 55 -19 72 -19 45 0 107 28 100 45 -5 13 51 35 134 52 70 13 103 32
139 76 33 39 41 60 56 134 9 48 19 129 22 178 l5 91 -28 13 c-16 7 -58 16 -94
18 l-65 5 -92 -62 c-99 -66 -183 -94 -378 -125 -100 -17 -214 -20 -199 -6 7 7
164 39 212 43 6 1 12 5 12 10 0 4 7 8 16 8 25 0 115 55 151 92 46 48 100 143
108 189 5 30 2 46 -14 73 -47 75 -151 90 -281 38 -112 -44 -212 -64 -325 -64
-91 0 -109 3 -200 37 -55 20 -108 46 -118 58 -15 18 -20 19 -28 6 -5 -9 -7 6
-3 43 4 53 3 57 -23 76 -27 19 -159 72 -178 72 -6 0 -83 36 -173 80 -148 73
-170 88 -242 158 -63 62 -101 88 -182 129 -138 70 -246 86 -411 62z m241 -533
c91 -107 156 -161 262 -221 47 -26 120 -72 162 -101 43 -30 87 -54 98 -54 29
0 88 -26 126 -55 52 -39 101 -29 157 34 15 17 34 31 42 31 35 0 165 -80 165
-101 0 -7 -77 -9 -237 -7 -206 4 -248 8 -313 26 -41 12 -116 33 -166 46 -51
13 -120 40 -155 59 -127 70 -273 126 -355 137 -109 14 -282 68 -264 83 3 2 56
25 119 52 63 27 136 66 163 88 42 33 100 65 119 67 3 0 38 -38 77 -84z"/>
</g>
</svg>
