<?xml version="1.0" encoding="UTF-8" standalone="no"?>
<!-- Created with Inkscape (http://www.inkscape.org/) -->

<svg
   xmlns:dc="http://purl.org/dc/elements/1.1/"
   xmlns:cc="http://creativecommons.org/ns#"
   xmlns:rdf="http://www.w3.org/1999/02/22-rdf-syntax-ns#"
   xmlns:svg="http://www.w3.org/2000/svg"
   xmlns="http://www.w3.org/2000/svg"
   xmlns:sodipodi="http://sodipodi.sourceforge.net/DTD/sodipodi-0.dtd"
   xmlns:inkscape="http://www.inkscape.org/namespaces/inkscape"
   id="svg2"
   sodipodi:docname="one-eye.svg"
   inkscape:export-filename="C:\joanna\Gfx\drawings_vector\admin\radacina_men_in_black.png"
   viewBox="0 0 105.88 322.03"
   sodipodi:version="0.32"
   inkscape:export-xdpi="48.135864"
   version="1.0"
   inkscape:output_extension="org.inkscape.output.svg.inkscape"
   inkscape:export-ydpi="48.135864"
   inkscape:version="0.92.4 (5da689c313, 2019-01-14)">
  <defs
     id="defs864" />
  <sodipodi:namedview
     id="base"
     bordercolor="#666666"
     inkscape:pageshadow="2"
     guidetolerance="10"
     pagecolor="#ffffff"
     gridtolerance="10000"
     inkscape:window-height="986"
     inkscape:zoom="1.84"
     objecttolerance="10"
     showgrid="false"
     borderopacity="1.0"
     inkscape:current-layer="layer1"
     inkscape:cx="27.976549"
     inkscape:cy="252.10264"
     inkscape:window-y="-11"
     inkscape:window-x="-11"
     inkscape:window-width="1920"
     inkscape:pageopacity="0.0"
     inkscape:document-units="px"
     inkscape:object-paths="false"
     inkscape:window-maximized="1" />
  <g
     id="layer1"
     inkscape:label="Layer 1"
     inkscape:groupmode="layer"
     transform="translate(-458.18 -31.672)">
    <path
       id="path2391"
       transform="translate(458.18,31.672)"
       style="fill:#000000"
       d="m 40.785156,0 c -0.8,0.003 -1.490468,0.09253125 -2.605468,0.26953125 -3.29,0.524 -4.530391,1.12260935 -7.150391,3.47460935 -2.22,1.992 -2.999297,2.9524063 -3.279297,4.0664063 -0.09,0.33 -0.609922,1.1616097 -1.169922,1.8496093 -2.33,2.8679998 -2.789765,5.0761878 -2.509766,11.9921878 0.03879,0.929631 0.09829,1.667418 0.15625,2.429687 1.673647,-0.505154 3.400826,-1.076629 4.324219,-1.417969 2.57819,-0.953046 5.144999,-1.944294 7.667969,-3.035156 8.731168,-3.775113 12.801878,-5.977473 20.939453,-10.1386716 -0.432076,-0.5531568 -0.99403,-1.2893492 -1.597656,-2.0859375 -1.21,-1.61 -2.480078,-3.1233282 -2.830078,-3.3613281 -0.34,-0.238 -1.120703,-0.9452657 -1.720703,-1.5722657 -1.34,-1.413 -2.328985,-1.72760935 -6.958985,-2.22460935 C 42.495781,0.07909375 41.585156,-0.003 40.785156,0 Z m 17.201172,10.492188 c -7.600292,3.883034 -11.818463,6.117433 -19.15625,9.361328 0.154731,-0.03676 0.352312,0.0485 0.492188,0.328125 0.15772,0.315282 0.600682,1.142059 0.726562,1.566406 0.0107,0.03602 0.01472,0.07605 0.02344,0.115234 0.03683,0.01207 0.04715,0.03986 0.134765,0.142578 -1.93e-4,-0.002 -0.002,-0.0039 -0.002,-0.0059 -0.0024,-0.0073 -0.0103,-0.02592 -0.002,-0.02734 0.0118,-0.0019 0.0086,0.02159 0.01172,0.0332 7.46e-4,0.0031 0.0014,0.0066 0.002,0.0098 0.003,0.0053 0.0042,0.0064 0.0059,0.0098 0.011,0.02298 0.02164,0.04743 0.02734,0.07227 0.01,0.04342 3.04e-4,0.08927 -0.0039,0.132813 -4.35e-4,0.02792 -6.23e-4,0.05597 0,0.08398 h 0.002 c 2.39e-4,0.0033 -0.0022,0.0064 -0.002,0.0098 7.59e-4,0.03324 0.0025,0.06646 0.002,0.09961 -1.5e-4,0.0038 -0.0018,0.0079 -0.002,0.01172 -9.81e-4,0.02481 -0.0089,0.02482 -0.01367,0.03711 -0.0078,0.09195 -0.01157,0.184244 -0.0293,0.275391 -0.0256,0.131921 -0.02281,0.138694 -0.07031,0.292969 -0.0207,0.06721 -0.04566,0.13266 -0.06836,0.199218 -0.0614,0.231211 -0.125039,0.460738 -0.212891,0.683594 -0.0169,0.04291 -0.03519,0.08514 -0.05469,0.126953 -0.01,0.02053 -0.02485,0.03882 -0.03125,0.06055 -0.005,0.01615 -6.71e-4,0.03396 -0.002,0.05078 -0.0318,0.19045 -0.08178,0.376478 -0.16211,0.552735 -0.01834,0.0402 -0.04053,0.07869 -0.0625,0.117187 -0.398943,1.190759 -0.439022,1.57043 -1.238281,2.652344 -0.53813,0.728427 -1.282747,1.372407 -2.054687,1.841797 -0.69104,0.420192 -1.25962,0.587992 -2,0.853516 -0.57869,0.09807 -0.923011,0.254423 -1.494141,-0.07422 -0.476543,-0.274188 -0.8326,-0.923154 -1.076172,-1.451172 -0.04493,-0.0974 -0.08622,-0.185912 -0.123047,-0.271485 -0.02044,-0.02554 -0.04312,-0.04944 -0.05664,-0.08008 -0.02261,-0.07624 -0.02272,-0.06457 -0.0059,-0.04492 -0.01971,-0.01615 -0.002,-3.89e-4 -0.04687,-0.0332 -0.05494,-0.183617 -0.122321,-0.364448 -0.175781,-0.548828 -0.07102,0.07221 -0.198716,0.06066 -0.228516,-0.111328 -0.002,-0.01137 -0.0022,-0.0083 0.0098,-0.002 l 0.002,-0.002 c -0.03132,-0.02053 -0.0624,-0.04203 -0.04492,-0.06445 0.0082,-0.01058 0.02295,-0.01343 0.0332,-0.02148 -0.0093,-0.01559 -0.01798,-0.0313 -0.02734,-0.04687 -0.0827,-0.138411 -0.271838,-0.450607 -0.335938,-0.572265 -0.0458,-0.087 -0.08698,-0.176888 -0.125,-0.267578 -0.101115,-0.241075 -0.183338,-0.487933 -0.255859,-0.738282 -0.02176,-0.04158 -0.03535,-0.08619 -0.04102,-0.138671 -7.67e-4,-0.0071 1.1e-4,-0.01433 0,-0.02148 -0.03769,-0.140154 -0.07757,-0.280012 -0.109375,-0.421875 -0.043,-0.201963 -0.07995,-0.405861 -0.132812,-0.605469 -0.0139,-0.05243 -0.03037,-0.10457 -0.04687,-0.15625 -0.0169,-0.05293 -0.03853,-0.104497 -0.05273,-0.158203 -0.01975,-0.07485 -0.02434,-0.141489 -0.03125,-0.210937 -0.03005,-0.110718 -0.05021,-0.219602 -0.08398,-0.388672 -0.01433,-0.07174 -0.01543,-0.133246 -0.01367,-0.193359 -0.278958,0.107033 -0.557613,0.214882 -0.837891,0.318359 -1.026689,0.379054 -2.863962,0.98553 -4.61914,1.505859 0.299952,2.83575 0.845799,4.692343 1.984375,7.191406 1.07,2.365001 1.29875,3.015391 1.46875,4.275391 0.2,1.406 0.879844,2.527 2.339844,3.875 l 1.210937,1.103516 0.199219,2.617187 0.201172,2.617188 L 30,48.742188 c -1.9,1.846997 -3.380469,2.871578 -9.230469,6.392578 -2.15,1.294 -4.788906,2.943968 -5.878906,3.667968 -2.11,1.405 -7.2309375,5.961407 -8.2109375,7.316407 -1.31,1.798 -1.5396875,3.188203 -2.4296875,14.908203 -0.07,0.99 -0.3002344,3.36125 -0.4902344,5.28125 -0.2,1.91 -0.5605468,6.070234 -0.8105468,9.240234 -0.25,3.17 -0.6694532,7.869452 -0.9394532,10.439452 -2.009999325,19.46 -2.05999998,20.74883 -1.99999997,47.04883 0.06,22.82 0.07101562,23.17031 0.54101562,23.57031 0.45000005,0.37 0.47851565,0.68992 0.47851565,4.91992 0,5.23 -0.10843818,4.90102 2.6015625,7.79102 1.57,1.68 1.85,1.87 3.25,2.25 1.02,0.28 2.0989791,0.39031 3.2089846,0.32031 1.77,-0.1 2.319687,-0.41148 4.429687,-2.52148 0.5,-0.5 0.920783,-0.66875 1.800781,-0.71875 0.920001,-0.05 1.258985,-0.19047 1.708985,-0.73047 0.32,-0.37 0.771484,-0.91094 1.021484,-1.21094 0.25,-0.3 0.718828,-0.53906 1.048828,-0.53906 0.48,0 0.640079,0.17039 0.830079,0.90039 0.53,1.96 1.711015,7.16883 2.791015,12.29883 0.62,2.97 1.318594,5.78023 1.558594,6.24023 0.5,0.99 2.600703,9.56969 3.470703,14.17969 0.34,1.77 0.829844,5.17078 1.089844,7.55078 0.26,2.37 0.679453,5.82969 0.939453,7.67969 0.27,1.85 0.761328,5.40992 1.111328,7.91992 l 0.619141,4.56055 1.060546,1.61914 c 1.22,1.85 1.340391,2.82 0.650391,5 -0.32,0.98 -0.410625,2.05078 -0.390625,4.30078 0.02,2.86 0.08953,3.21055 1.269531,7.31055 l 1.240235,4.30859 -0.06055,3.98047 -0.04883,3.9707 1.15039,3.24024 c 0.63,1.78 1.57961,3.9789 2.09961,4.8789 l 0.958984,1.64063 -0.369141,2.56054 c -1.00992,6.96 -0.640312,11.78946 0.929688,12.18946 0.46,0.11 0.549922,0.34007 0.669922,1.83007 0.09,1.06001 0.04086,1.88922 -0.119141,2.19922 -0.41,0.77 -3.701015,4.08985 -5.791015,5.83985 -2.24,1.88 -3.138907,3.43008 -3.378907,5.83008 -0.13,1.3 -0.08117,1.68078 0.298829,2.30078 l 0.460937,0.74023 3.298828,0.16016 c 1.82,0.09 6.150871,0.16015 9.630859,0.16015 h 6.310547 l 0.839844,-0.74023 c 0.46,-0.4 0.888984,-0.92063 0.958985,-1.14063 0.119998,-0.36 0.489765,-0.39031 3.259765,-0.32031 l 3.121094,0.0899 0.5,-1.11915 c 0.38,-0.87 0.579609,-2.17046 0.849609,-5.73046 l 0.369141,-4.60938 0.861328,-0.73047 c 0.69,-0.6 0.829219,-0.85031 0.699219,-1.32031 -0.08,-0.32 -0.04039,-3.13953 0.09961,-6.26953 0.22,-4.98 0.201328,-5.88031 -0.138672,-7.32031 -0.21,-0.9 -0.430456,-1.83985 -0.480469,-2.08985 -0.05,-0.26 0.139922,-0.89945 0.419922,-1.43945 0.44,-0.85 0.519375,-1.50094 0.609375,-4.71094 l 0.09961,-3.71875 -0.96875,-3 -0.970703,-3 0.130859,-4.56055 c 0.12,-4.37999 0.08977,-4.79929 -0.740234,-10.27929 -0.48,-3.15 -1.04,-7.31 -1.25,-9.25 -0.28,-2.61 -0.690547,-4.6418 -1.560547,-7.8418 -0.66,-2.38 -1.290158,-4.7493 -1.410156,-5.2793 -0.230002,-1 -0.540469,-5.70953 -0.980469,-14.51953 -0.24,-4.72 -0.509297,-8.12984 -1.529297,-19.08984 -0.55,-5.99 -0.810156,-15.93953 -0.410156,-16.26953 0.34,-0.28 0.75,0.12953 0.75,0.76953 0.01,0.54 2.569531,11.24023 3.769531,15.74023 0.85,3.18 1.270625,5.47008 1.890625,10.33008 1.16,9.05 1.460156,10.92883 2.660156,16.79883 0.59,2.92 1.229688,6.94 1.429688,9 0.68,7.2 0.530312,6.48992 1.820312,8.66992 0.9,1.53 0.949922,1.73031 1.169922,4.57031 0.12,1.63 0.289375,3.32024 0.359375,3.74024 0.07,0.43 0.350859,2.80906 0.630859,5.28906 0.71,6.52 0.880391,8.09016 0.900391,8.16016 0.01,0.03 0.420156,0.50101 0.910156,1.04101 0.74,0.82 0.939688,1.26969 1.179688,2.67969 0.19,1.13 0.210364,2.17039 0.07031,3.15039 -0.11,0.81 -0.271562,3.24969 -0.351562,5.42969 l -0.148438,3.96094 1.839844,1.91992 c 1.8,1.87 1.839453,1.93914 1.689453,2.86914 -0.08,0.52 -0.370399,1.43906 -0.65039,2.03906 -0.66,1.47 -0.609766,2.59102 0.240234,5.29102 0.59,1.87 0.740078,2.82961 0.830078,5.34961 0.14,3.61 0.410234,4.25 1.740234,4.25 h 0.830078 v 2.96093 c 0,1.7 0.110006,3.04922 0.25,3.19922 0.240004,0.24 0.540079,1.80016 0.830079,4.41016 0.09,0.72 0.310234,1.43008 0.490234,1.58008 0.21,0.16 1.258594,0.22992 2.808594,0.16992 2.22,-0.08 2.690234,-0.0191 4.740234,0.63086 l 2.28125,0.72851 4.929688,-0.10937 c 4.28,-0.09 5.199609,-0.17922 7.099609,-0.69922 2.36,-0.64 3.83906,-1.38148 4.03906,-2.02148 0.32,-1 -0.35875,-3.2893 -1.71875,-5.7793 -1.12,-2.07 -1.79961,-2.95953 -3.59961,-4.76953 -2.049919,-2.05 -2.2207,-2.28992 -2.2207,-3.16992 0,-0.88 0.0593,-0.97039 1.029297,-1.4004 l 1.031253,-0.46093 -0.410159,-5.63867 c -0.23,-3.1 -0.609844,-6.92024 -0.839844,-8.49024 -0.36,-2.42 -0.430703,-4.87031 -0.470703,-15.82031 -0.05,-14 -0.370313,-19.65055 -1.320313,-23.31055 -1.21,-4.65 -2.739375,-9.21859 -3.609375,-10.80859 -0.9,-1.66 -0.980859,-1.96008 -2.130859,-9.08008 -1.88,-11.65 -3.359375,-31.12055 -3.359375,-44.31055 l -0.0098,-4.21093 2.169922,-0.92969 c 1.52,-0.65 2.42,-1.20961 3,-1.84961 0.46,-0.51 0.839844,-1.03992 0.839844,-1.16992 0,-0.44 2.170234,-2.59071 3.240234,-3.22071 0.7,-0.41 1.119063,-0.85867 1.289063,-1.38867 0.25,-0.76 0.77164,-5.04101 0.68164,-5.54101 -0.03,-0.13 0.188282,-0.3693 0.488282,-0.5293 0.299999,-0.16 0.611639,-0.33992 0.681639,-0.41992 0.34,-0.33 2.60998,-17.06985 3.58984,-26.33985 0.21001,-2.05 0.58985,-5.49968 0.83985,-7.67968 0.5,-4.26 1.04984,-15.42078 0.83984,-16.80079 -0.07,-0.46998 -0.33937,-3.81921 -0.60937,-7.44921 -0.26,-3.63 -0.60024,-7.49032 -0.74024,-8.57032 -0.3,-2.189892 -1.77078,-6.900465 -7.050778,-22.480465 -3.31,-9.764 -3.909844,-11.908391 -4.839844,-17.150391 -0.43,-2.481 -1.279922,-4.06214 -2.669922,-4.99414 -0.99,-0.663 -10.431015,-4.156719 -19.291015,-7.136719 -9.43,-3.174 -11.32836,-4.096891 -14.31836,-6.962891 -0.88,-0.835 -1.021484,-1.117125 -1.021484,-1.953125 0,-1.048 0.301641,-1.607672 1.681641,-3.138671 0.869998,-0.958 0.889531,-1.014735 1.019531,-3.427735 0.09,-1.726 0.259062,-2.641078 0.539062,-3.080078 0.57,-0.871 1.930625,-4.989141 2.390625,-7.244141 0.37,-1.825 0.370313,-1.966281 -0.179687,-4.738281 -0.32,-1.572 -0.750703,-3.205906 -0.970703,-3.628906 -0.22,-0.422 -0.400391,-1.022031 -0.400391,-1.332031 0,-0.498675 -0.850559,-1.921467 -1.373047,-2.298828 z m -19.234375,9.396484 c -0.01207,0.0053 -0.02358,0.01043 -0.03516,0.01563 0.002,0.0022 0.006,0.0036 0.0078,0.0059 0.0097,-0.0062 0.01753,-0.01538 0.02734,-0.02148 z m -3.080078,2.21289 c -7.66e-4,0.0026 -0.0012,0.0053 -0.002,0.0078 4.49e-4,0.0023 0.0016,0.0038 0.002,0.0059 0.0029,-0.0026 0.0069,-0.0033 0.0098,-0.0059 -0.0038,-0.002 -0.0065,-0.0053 -0.0098,-0.0078 z m -5.501953,1.935547 c -0.01289,-0.0013 -0.01885,0.0044 -0.02734,0.0078 4.62e-4,0.0032 0.0016,0.0045 0.002,0.0078 0.01761,0.0017 0.03523,0.0035 0.05273,0.0059 -0.0092,-0.0062 -0.01828,-0.01396 -0.02734,-0.02148 z m 1,3.363282 c -0.0049,0.0043 -0.0088,0.0095 -0.01367,0.01367 0.0059,-0.0018 0.01162,-0.004 0.01758,-0.0059 -9.4e-4,-0.0026 -0.003,-0.0052 -0.0039,-0.0078 z m 1.710937,1.384765 c -8.85e-4,-1.53e-4 -0.0067,0.002 -0.0078,0.002 v 0.002 0.002 c -8.76e-4,-0.0011 0.01115,-0.0053 0.0078,-0.0059 z" />
  </g>
  <metadata
     id="metadata861">
    <rdf:RDF>
      <cc:Work>
        <dc:format>image/svg+xml</dc:format>
        <dc:type
           rdf:resource="http://purl.org/dc/dcmitype/StillImage" />
        <cc:license
           rdf:resource="http://creativecommons.org/licenses/publicdomain/" />
        <dc:publisher>
          <cc:Agent
             rdf:about="http://openclipart.org/">
            <dc:title>Openclipart</dc:title>
          </cc:Agent>
        </dc:publisher>
        <dc:title></dc:title>
        <dc:date>2006-12-26T00:00:00</dc:date>
        <dc:description />
        <dc:source>https://openclipart.org/detail/24898/-by--24898</dc:source>
        <dc:creator>
          <cc:Agent>
            <dc:title>radacina</dc:title>
          </cc:Agent>
        </dc:creator>
      </cc:Work>
      <cc:License
         rdf:about="http://creativecommons.org/licenses/publicdomain/">
        <cc:permits
           rdf:resource="http://creativecommons.org/ns#Reproduction" />
        <cc:permits
           rdf:resource="http://creativecommons.org/ns#Distribution" />
        <cc:permits
           rdf:resource="http://creativecommons.org/ns#DerivativeWorks" />
      </cc:License>
    </rdf:RDF>
  </metadata>
</svg>
