<?xml version="1.0" encoding="UTF-8" standalone="no"?>
<!-- Created with Inkscape (http://www.inkscape.org/) -->

<svg
   xmlns:dc="http://purl.org/dc/elements/1.1/"
   xmlns:cc="http://creativecommons.org/ns#"
   xmlns:rdf="http://www.w3.org/1999/02/22-rdf-syntax-ns#"
   xmlns:svg="http://www.w3.org/2000/svg"
   xmlns="http://www.w3.org/2000/svg"
   xmlns:sodipodi="http://sodipodi.sourceforge.net/DTD/sodipodi-0.dtd"
   xmlns:inkscape="http://www.inkscape.org/namespaces/inkscape"
   id="svg20085"
   version="1.1"
   inkscape:version="0.91 r13725"
   width="450"
   height="681.5625"
   viewBox="0 0 450 681.5625"
   sodipodi:docname="PheasantsTreeSilhouette.svg">
  <metadata
     id="metadata20091">
    <rdf:RDF>
      <cc:Work
         rdf:about="">
        <dc:format>image/svg+xml</dc:format>
        <dc:type
           rdf:resource="http://purl.org/dc/dcmitype/StillImage" />
        <dc:title></dc:title>
      </cc:Work>
    </rdf:RDF>
  </metadata>
  <defs
     id="defs20089" />
  <sodipodi:namedview
     pagecolor="#ffffff"
     bordercolor="#666666"
     borderopacity="1"
     objecttolerance="10"
     gridtolerance="10"
     guidetolerance="10"
     inkscape:pageopacity="0"
     inkscape:pageshadow="2"
     inkscape:window-width="1600"
     inkscape:window-height="837"
     id="namedview20087"
     showgrid="false"
     inkscape:zoom="0.9830353"
     inkscape:cx="225"
     inkscape:cy="340.78125"
     inkscape:window-x="-8"
     inkscape:window-y="-8"
     inkscape:window-maximized="1"
     inkscape:current-layer="svg20085" />
  <path
     style="fill:#000000"
     d="m 220.78125,680.60218 c -17.53125,-0.36097 -36.09375,-0.98433 -41.25,-1.38522 -5.15625,-0.40089 -12.75,-0.83954 -16.875,-0.97477 -10.71623,-0.3513 -14.70203,-1.38735 -16.12239,-4.19076 -3.95246,-7.80108 -5.86536,-14.06733 -7.72379,-25.30143 -1.15154,-6.96094 -2.91915,-16.24219 -3.92803,-20.625 -1.00888,-4.38281 -2.86607,-12.60938 -4.12709,-18.28125 -1.26102,-5.67188 -3.32766,-14.53125 -4.59254,-19.6875 -1.26488,-5.15625 -2.76419,-13.17188 -3.3318,-17.8125 -0.56762,-4.64063 -1.43671,-10.44141 -1.93131,-12.89063 -2.26775,-11.2294 -3.08107,-14.68892 -4.7433,-20.17593 -0.97955,-3.23349 -1.781,-7.00041 -1.781,-8.37094 0,-4.11811 -3.74749,-14.39777 -6.32707,-17.3557 -1.96075,-2.24832 -0.94846,-4.08618 3.50095,-6.3561 2.35523,-1.20155 4.40068,-3.15426 5.31711,-5.07606 1.36816,-2.86905 1.3601,-3.61023 -0.0991,-9.10522 -0.87367,-3.29006 -2.35691,-8.93505 -3.2961,-12.54442 -2.1202,-8.14821 -2.69957,-9.66109 -4.93581,-12.88868 -2.49234,-3.59727 -1.84719,-7.23642 1.62127,-9.1451 2.93411,-1.61464 5.1188,-4.90963 5.14243,-7.75592 0.0129,-1.55882 -0.17045,-1.56941 -2.8833,-0.16655 -3.59191,1.85745 -5.54038,1.20303 -5.54038,-1.86081 0,-2.34491 2.78113,-8.12442 5.25139,-10.91301 0.72111,-0.81404 1.31111,-2.45831 1.31111,-3.65393 0,-2.15332 -0.0763,-2.16799 -8.07718,-1.553 -10.054004,0.77281 -15.733252,2.16552 -17.702075,4.34105 -3.559583,3.93329 -4.500724,48.15428 -1.356816,63.7522 0.987327,4.89844 2.224848,12.78491 2.75005,17.52549 0.5252,4.74059 1.429323,9.80309 2.009162,11.25 0.579838,1.44692 1.400022,4.10732 1.82263,5.91201 0.422608,1.80469 1.648473,6.65625 2.724151,10.78125 1.075678,4.125 2.777775,12.14062 3.782428,17.8125 1.00466,5.67187 2.27914,12.21094 2.83217,14.53125 3.85148,16.15945 4.53679,20.48955 4.59954,29.0625 0.0321,4.38281 -0.53764,10.71094 -1.26607,14.0625 -0.72842,3.35156 -1.81663,8.83594 -2.41825,12.1875 -0.6016,3.35156 -1.48328,6.49453 -1.95929,6.98437 -0.47599,0.48985 -0.86545,1.74853 -0.86545,2.79707 0,1.04855 -1.364756,4.65558 -3.032784,8.01563 -3.289632,6.62656 -15.219851,19.70293 -17.975958,19.70293 -0.871404,0 -2.893699,0.67708 -4.493989,1.50462 -1.600291,0.82754 -5.095665,1.63655 -7.7675,1.79779 -2.671834,0.16123 -6.509524,1.00741 -8.5282,1.88039 -5.667641,2.45098 -19.13299,3.47664 -25.131351,1.91427 C 20.811285,675.07263 9.3593921,666.86062 4.7783468,657.83523 0.72167562,649.84295 -1.0757722,638.3676 1.3151931,635.72561 c 1.503645,-1.6615 1.506062,-2.06528 0.039209,-6.54993 -2.33958991,-7.15289 -0.1212496,-10.7416 2.8226328,-4.5663 2.2791864,4.78097 6.8417891,9.12781 9.6986081,9.23996 7.697812,0.30218 10.303421,-0.65723 18.936857,-6.97274 7.365608,-5.38808 10.844573,-9.0628 12.075444,-12.75492 1.75208,-5.25554 -0.08054,-5.48952 -6.029921,-0.76987 -3.5523,2.81804 -5.934844,4.06894 -7.146474,3.75209 -1.115594,-0.29174 -1.616073,-1.00047 -1.295822,-1.83503 0.286975,-0.74785 0.521773,-1.53615 0.521773,-1.7518 0,-0.21563 0.676717,-0.39207 1.503817,-0.39207 0.827099,0 3.966065,-2.51635 6.975481,-5.5919 3.956261,-4.04318 6.655515,-8.05848 9.746184,-14.49799 2.350985,-4.89837 4.274518,-9.2891 4.274518,-9.75719 0,-0.4681 1.008704,-3.96353 2.241565,-7.76763 3.092399,-9.54186 3.90504,-32.69779 1.147507,-32.69779 -1.572445,0 -4.062775,3.64093 -5.671568,8.292 -0.651917,1.88471 -1.881613,3.56316 -2.732655,3.72986 -1.788877,0.35044 -1.93491,-1.3172 -0.601212,-6.86561 1.45373,-6.04776 4.528466,-25.46063 5.696006,-35.96271 0.593881,-5.34198 2.110544,-13.56855 3.370362,-18.28125 1.259818,-4.7127 2.495942,-10.25604 2.746941,-12.31854 0.251,-2.0625 1.072376,-9.02344 1.825281,-15.46875 0.752904,-6.44531 1.638384,-13.34369 1.967732,-15.32972 0.516907,-3.11705 0.373174,-3.56586 -1.050802,-3.28125 -1.128816,0.22562 -2.402572,2.62355 -4.034585,7.59534 -1.311735,3.9961 -2.799202,7.26563 -3.305486,7.26563 -0.572095,0 -0.688053,-2.39523 -0.306356,-6.32813 0.541621,-5.58073 3.272876,-14.45156 9.130912,-29.65626 0.970122,-2.51799 1.763858,-5.19866 1.763858,-5.95708 0,-1.63204 12.31342,-17.82686 19.774565,-26.00786 2.883823,-3.16204 5.513585,-6.82603 5.843916,-8.14217 0.531714,-2.11852 1.205355,-2.45541 5.873053,-2.93715 4.399656,-0.45409 5.595436,-0.24328 7.223486,1.27349 1.22101,1.13754 3.20034,1.78997 5.28988,1.74364 1.83637,-0.0407 2.70604,-0.31179 1.9326,-0.60241 -0.77344,-0.29063 -2.52607,-1.31202 -3.89472,-2.26974 -1.36866,-0.95773 -3.13238,-1.74133 -3.91937,-1.74133 -2.65197,0 -7.92331,-4.16318 -8.449819,-6.67346 -0.411,-1.95958 -1.328232,-2.66077 -4.547346,-3.47625 -5.213988,-1.32085 -10.685403,-5.79091 -9.826812,-8.02837 0.343654,-0.89555 1.020528,-1.3837 1.504166,-1.0848 0.483638,0.2989 1.125748,0.14477 1.426912,-0.34252 0.301163,-0.4873 -2.105729,-2.63043 -5.348649,-4.76253 -6.506922,-4.27806 -11.011473,-9.75246 -9.372943,-11.39099 0.894692,-0.8947 8.003951,1.50838 14.525235,4.90982 0.895347,0.467 2.393003,0.8491 3.328125,0.8491 0.935122,0 2.101002,0.39295 2.590846,0.87323 1.008139,0.98846 13.397985,2.53288 12.493865,1.55739 -1.27448,-1.37511 -26.143863,-9.93062 -28.866572,-9.93062 -5.457248,0 -15.432417,-9.03538 -13.090505,-11.85721 2.444327,-2.94524 15.969175,-0.99943 30.822587,4.43442 4.382812,1.60337 9.15409,3.27438 10.60282,3.71336 3.80402,1.15263 14.41612,7.14429 19.86593,11.21642 2.57813,1.92639 6.375,4.60324 8.4375,5.94856 4.16874,2.71917 13.00201,12.31754 16.26657,17.67552 2.37094,3.89132 10.82115,11.83752 13.71946,12.90116 5.71844,2.09858 6.90002,1.97547 10.38192,-1.08167 3.23562,-2.84092 3.38811,-3.23118 2.84191,-7.27315 -1.81291,-13.41582 -7.63129,-29.6777 -13.34241,-37.29097 -2.86923,-3.82484 -7.55447,-14.21259 -8.36922,-18.55556 -0.76922,-4.10035 -2.61101,-5.14338 -9.08209,-5.14338 -6.20767,0 -13.52352,-2.37734 -14.83039,-4.81924 -0.75523,-1.41115 -0.50346,-2.59797 1.12358,-5.29658 6.32407,-10.48907 11.48899,-14.25918 19.53457,-14.25918 3.99714,0 4.72485,0.27111 4.72485,1.76021 0,0.96811 -0.63281,2.28539 -1.40625,2.92729 -1.59748,1.32579 -2.06182,15.42169 -0.53901,16.36283 0.47699,0.29479 1.92177,0.0555 3.21062,-0.53172 3.75075,-1.70896 21.23464,2.71777 21.23464,5.37638 0,0.80475 -1.03833,1.29251 -2.75147,1.29251 -3.59193,0 -7.29364,1.4485 -11.07779,4.33482 -2.52944,1.9293 -2.89162,2.63893 -2.10087,4.11645 0.5255,0.9819 2.47612,2.50688 4.33472,3.38885 1.8586,0.88196 4.16962,2.90296 5.13561,4.49109 4.30542,7.07837 11.30607,22.38743 13.96732,30.54379 2.99913,9.19194 6.54715,25.61987 6.55214,30.33752 0.005,4.60421 -5.50343,13.57828 -10.73552,17.49018 -5.53786,4.14051 -19.16418,11.21655 -21.71411,11.27595 -0.97146,0.0226 -3.45378,0.65764 -5.51628,1.41114 -2.0625,0.75349 -6.70255,1.80302 -10.31122,2.33228 -10.00448,1.46728 -17.24478,7.03505 -19.18492,14.75317 -0.61262,2.43705 -2.13758,6.47121 -3.38879,8.96478 -3.46698,6.90936 -3.59688,10.19627 -0.85827,21.71623 1.34836,5.67187 2.76907,12.21094 3.15714,14.53125 1.66003,9.92553 6.82051,14.00392 17.76755,14.04191 5.29208,0.0184 6.2269,0.31601 8.67187,2.76098 3.21428,3.21426 3.44233,5.48937 0.87717,8.75046 -1.57461,2.00178 -1.90137,4.04643 -2.10938,13.1992 -0.16311,7.17664 0.11516,11.1936 0.82483,11.90682 0.76238,0.76619 9.37466,1.05935 29.88802,1.01736 24.40042,-0.05 29.15749,-0.28205 31.03839,-1.51446 2.30808,-1.51231 2.90431,-3.69203 1.28386,-4.69352 -1.23768,-0.76492 -1.19334,-5.75738 0.0875,-9.84994 0.56373,-1.80128 1.17488,-10.44694 1.35811,-19.21256 0.42472,-20.31906 1.80109,-40.42794 3.62548,-52.96875 0.78762,-5.41406 1.44659,-14.69531 1.46437,-20.625 0.0178,-5.92969 0.53438,-14.57813 1.14796,-19.21875 0.61359,-4.64063 1.06056,-9.49219 0.99327,-10.78125 -0.9236,-17.69212 -0.7289,-34.64907 0.50055,-43.59375 2.09963,-15.27564 2.13255,-61.23668 0.048,-67.03125 -1.59469,-4.4329 -3.60021,-15.91368 -3.60021,-20.60978 0,-3.71206 -4.5566,-8.76029 -10.64312,-11.79145 -2.6541,-1.32176 -6.46095,-3.70522 -8.45966,-5.29657 -4.58335,-3.64918 -7.53499,-2.92879 -10.36795,2.53048 -2.561,4.93516 -5.74326,6.29555 -15.9791,6.83096 -8.13231,0.42537 -8.78048,0.31139 -14.42099,-2.53593 -6.17239,-3.11582 -7.0701,-3.04533 -10.07209,0.79073 -2.80167,3.58009 -20.93076,5.69321 -25.91714,3.02089 -1.59013,-0.85218 -3.74952,-1.07484 -6.46675,-0.66678 -10.8404,1.62791 -12.677947,1.65127 -14.149334,0.17989 -0.802238,-0.80224 -3.284635,-2.08773 -5.516423,-2.85665 -3.748419,-1.29144 -4.202411,-1.2685 -5.954496,0.30089 -3.660441,3.27875 -6.08853,3.60203 -17.834197,2.37447 -6.608557,-0.69067 -8.864821,-2.53961 -6.409665,-5.25253 0.849209,-0.93836 2.302531,-1.70612 3.229604,-1.70612 2.927239,0 6.548986,-2.13275 6.253913,-3.68276 -0.426774,-2.24183 -4.178562,-2.38241 -5.346373,-0.20034 -0.546224,1.02063 -2.367737,2.14788 -4.047807,2.50498 -1.680069,0.35712 -3.687485,1.18843 -4.460922,1.84737 -1.995319,1.69994 -5.21506,0.23038 -6.982163,-3.18683 -2.06412,-3.99156 -1.942375,-4.37902 2.834881,-9.02198 2.551924,-2.48019 4.163536,-4.82742 3.977558,-5.79313 -0.171963,-0.89294 -2.014569,-2.76654 -4.094679,-4.16355 -4.272746,-2.86962 -6.592177,-6.47117 -5.686851,-8.83042 0.480524,-1.25222 1.396788,-1.48516 4.306648,-1.09487 6.736013,0.90349 7.443344,-4.04591 0.860092,-6.0183 -2.009143,-0.60195 -3.652986,-1.36947 -3.652986,-1.70559 0,-0.33612 -1.299355,-1.94015 -2.887456,-3.56449 -2.061622,-2.10868 -2.716839,-3.49092 -2.290911,-4.83291 0.709159,-2.23436 5.501011,-3.38207 10.334617,-2.47529 4.449469,0.83473 4.33614,-1.10858 -0.240781,-4.12881 -1.930071,-1.27361 -4.61611,-3.58552 -5.968977,-5.13755 -2.037542,-2.3375 -2.293324,-3.18716 -1.490142,-4.94995 0.794457,-1.74365 1.715673,-2.12808 5.099515,-2.12808 2.271445,0 4.997315,0.46422 6.057487,1.03162 1.566495,0.83835 2.28839,0.6708 3.853626,-0.89444 l 1.926038,-1.92603 -6.126923,-5.90245 c -7.405649,-7.13433 -9.875577,-11.0587 -6.960145,-11.0587 0.718271,0 1.526333,-0.57431 1.795692,-1.27626 0.355608,-0.9267 1.756742,-1.1545 5.115673,-0.83176 3.795444,0.3647 4.738801,0.15036 5.254638,-1.19388 0.450245,-1.17332 -0.44117,-2.6261 -3.140372,-5.11798 -5.787454,-5.34296 -4.51881,-10.26957 2.314394,-8.98765 3.151191,0.59116 3.291527,0.50116 3.291527,-2.11106 0,-1.5007 -0.817598,-3.76795 -1.816884,-5.03834 -0.999287,-1.27039 -2.098723,-3.43273 -2.443191,-4.8052 -0.656754,-2.61672 -0.479662,-2.76876 4.49445,-3.85868 2.95316,-0.64709 3.379851,-3.22924 1.171875,-7.09169 -1.837212,-3.21386 -1.797356,-8.34626 0.07038,-9.06298 0.812146,-0.31165 3.17353,-0.0582 5.247522,0.56315 2.073991,0.62138 3.966744,0.93393 4.206117,0.69456 0.239372,-0.23937 0.427506,-3.94699 0.418074,-8.23914 -0.01967,-8.95151 1.288358,-11.53666 5.324694,-10.52361 2.196489,0.55128 2.304256,0.41472 1.676534,-2.12454 -1.708241,-6.910174 -1.65959,-8.349396 0.343512,-10.162174 1.811832,-1.639691 2.220046,-1.672475 4.9993,-0.401513 5.975191,2.732475 6.367113,2.048147 4.820453,-8.41695 -0.861226,-5.827294 0.809972,-8.660378 4.665816,-7.909654 1.6033,0.312161 3.05947,0.93379 3.23591,1.381396 0.54083,1.371946 6.97391,5.399278 7.80455,4.885915 0.94056,-0.581296 1.04084,-4.487007 0.13838,-5.389465 -0.92364,-0.923648 -3.07672,-7.351641 -3.09337,-9.235258 -0.0242,-2.737787 2.09021,-6.372237 3.70718,-6.372237 0.84993,0 2.36425,0.619395 3.36514,1.376435 4.31089,3.26059 7.30628,0.924919 6.0144,-4.68976 -0.4705,-2.044859 -0.63596,-4.434626 -0.3677,-5.310595 0.74284,-2.425523 3.79907,-2.934572 6.83865,-1.139047 4.57887,2.7048 5.95758,1.346653 5.28691,-5.208037 -0.87626,-8.564037 1.39272,-11.289116 6.57329,-7.894667 3.68924,2.417285 5.09113,1.173617 4.86132,-4.312671 -0.22054,-5.264683 0.80558,-6.56754 4.60109,-5.841983 3.39437,0.648875 8.71897,-2.537532 10.22725,-6.1203 1.62643,-3.863443 4.86295,-4.059788 9.43517,-0.572392 1.78431,1.360966 3.4864,2.232293 3.78242,1.936281 0.296,-0.296012 0.84084,-3.104903 1.21073,-6.241983 0.36989,-3.137078 1.12001,-6.151261 1.66693,-6.698183 1.83817,-1.838163 9.23239,0.02369 12.40231,3.122884 2.71723,2.656591 3.30971,3.934167 4.029,8.687768 0.15605,1.03125 0.91076,1.875 1.67713,1.875 1.00733,0 1.47513,-1.296277 1.68836,-4.678417 0.28271,-4.484524 2.02041,-7.815517 6.32033,-12.1154337 2.10923,-2.109229 5.57668,-1.8422208 7.16627,0.5518329 1.86783,2.8131018 4.4997,1.6863108 4.4997,-1.9264712 C 211.875,4.7960859 216.27039,0 218.85175,0 c 2.30395,0 6.34565,4.0550739 8.08421,8.1109454 2.41611,5.6365696 4.61576,5.1551496 5.99877,-1.3129056 1.30534,-6.10482379 8.49519,-8.0216125 11.43315,-3.0480398 0.91376,1.546875 1.96387,2.8125 2.33358,2.8125 0.3697,0 0.93919,0.8412526 1.26553,1.8694502 0.84216,2.6534118 3.11298,4.6930498 5.22498,4.6930498 1.38392,0 1.80803,-0.659723 1.80803,-2.8125 0,-2.4026537 0.35461,-2.8125 2.43348,-2.8125 3.40918,0 7.85226,2.848221 8.50595,5.452705 0.50487,2.011571 0.90344,2.144204 4.88328,1.625008 3.9582,-0.516372 4.69006,-0.278969 8.44985,2.740975 2.26397,1.818471 5.11162,3.306312 6.32812,3.306312 1.31547,0 3.67216,1.460343 5.81534,3.603516 2.06936,2.069366 4.93685,3.870183 6.73535,4.229884 4.5298,0.905958 6.53613,3.105824 6.53613,7.1666 0,4.069638 2.52402,6.864911 5.78206,6.403461 2.25831,-0.319856 2.70705,-2.325107 1.27562,-5.700336 -1.85284,-4.36891 8.73103,0.34411 12.90851,5.748187 1.44233,1.865841 3.78774,5.199223 5.21202,7.407515 1.42427,2.208294 4.01592,4.739544 5.75923,5.625 2.56455,1.302582 3.50911,2.641064 4.94781,7.011291 1.11113,3.375188 2.53879,5.800355 3.80583,6.464986 1.11522,0.584989 2.36504,1.634842 2.77738,2.333007 0.41234,0.698164 1.90484,1.269389 3.31666,1.269389 1.43035,0 3.9425,1.148351 5.67353,2.593481 3.04935,2.54571 3.08653,2.667909 2.01855,6.634059 -0.83955,3.117874 -0.82914,4.352497 0.0456,5.406498 0.9781,1.178539 1.42489,1.092279 3.25689,-0.628799 1.48598,-1.396003 2.7345,-1.800727 4.15965,-1.348404 1.87295,0.59445 1.98912,1.071748 1.44778,5.947865 -0.32368,2.915853 -0.67681,7.8328 -0.78469,10.92655 l -0.19615,5.625 4.52588,0 c 6.39204,0 7.23153,1.44008 6.54128,11.22101 -0.66164,9.37552 0.19428,10.36995 5.35556,6.22223 1.99298,-1.6016 4.05108,-2.91199 4.57358,-2.91199 1.31669,0 2.31797,6.00675 1.59983,9.59746 -0.32655,1.63276 -1.50032,3.93367 -2.60838,5.11315 -1.46056,1.55469 -1.97323,3.20171 -1.86404,5.98837 0.19687,5.0241 0.64261,5.59463 3.86715,4.94973 2.31336,-0.46268 2.9115,-0.12975 4.18241,2.32789 2.20275,4.25967 1.596,8.72103 -1.80523,13.2734 -1.42426,1.90629 -3.63128,11.20552 -2.84585,11.99093 0.34655,0.34656 1.87516,-0.0845 3.39689,-0.9578 5.42296,-3.11235 7.80453,0.65359 4.59981,7.27364 -1.11645,2.30628 -2.34643,4.19323 -2.73329,4.19323 -1.52707,0 -2.90458,4.76362 -1.91318,6.61608 1.04514,1.95286 3.2429,2.41649 4.19008,0.88392 0.31868,-0.51563 1.39826,-0.9375 2.39908,-0.9375 1.53853,0 1.81967,0.66888 1.81967,4.32936 0,4.30407 -1.18623,6.417 -7.30646,13.01439 -2.80913,3.02813 -3.23633,4.21791 -2.03446,5.66606 1.29202,1.5568 5.19174,1.83203 6.05967,0.42769 1.12619,-1.82221 5.08575,-0.97913 6.65588,1.4172 2.469,3.76816 1.09714,7.50618 -4.85297,13.22329 -6.03317,5.7969 -6.39783,8.15723 -1.33468,8.6389 3.01918,0.28722 4.63833,1.41234 4.67367,3.24759 0.0316,1.64378 -4.72955,5.34802 -6.87399,5.34802 -4.12243,0 -3.9438,4.07356 0.41646,9.49672 2.46002,3.0597 1.70794,6.18895 -1.69256,7.04242 -1.32796,0.33329 -5.20219,0.17643 -8.60939,-0.34859 -5.17837,-0.79793 -6.46413,-0.71933 -7.83555,0.47899 -0.90234,0.78845 -1.64062,2.12755 -1.64062,2.97576 0,4.14945 -4.08114,3.99799 -11.25,-0.41751 -5.43393,-3.34692 -6.38965,-3.42802 -11.06524,-0.93902 -7.11273,3.78639 -14.09366,2.73528 -23.60707,-3.5545 -4.01007,-2.65126 -4.31217,-2.70969 -6.5625,-1.26931 -5.27264,3.37485 -10.17917,5.11725 -16.10609,5.71957 -7.39161,0.75117 -10.62777,-0.50176 -15.91018,-6.15987 -1.99182,-2.13349 -4.27664,-3.64966 -5.4999,-3.64966 -1.81432,0 -2.00676,0.34284 -1.4471,2.57812 1.53956,6.14908 1.21338,7.24336 -2.25754,7.57357 -4.05185,0.38548 -15.21215,-3.793 -19.91128,-7.45491 -4.32276,-3.36859 -6.6965,-3.39501 -10.66309,-0.11866 -1.71669,1.41797 -4.79544,3.84375 -6.84168,5.39063 -2.04623,1.54687 -4.14185,3.70262 -4.65694,4.79055 -1.46488,3.09403 -1.88547,133.82264 -0.54861,170.52195 0.26296,7.21875 0.0899,16.5454 -0.38458,20.72588 -0.5096,4.48979 -0.5259,11.01314 -0.0398,15.9375 0.45256,4.58515 1.02923,21.15745 1.28146,36.82734 0.27731,17.22679 0.8355,28.94484 1.4119,29.63935 0.71311,0.85924 7.97765,1.14953 28.83391,1.15217 15.94036,0.002 30.44232,0.44372 33.8622,1.03136 8.39741,1.44294 8.936,0.9774 10.33548,-8.93354 0.64111,-4.54028 1.9904,-10.82529 2.99844,-13.96669 1.00804,-3.14141 1.57758,-6.37673 1.26564,-7.18963 -0.49675,-1.29451 0.85813,-1.48404 10.91429,-1.52679 6.3148,-0.0268 11.86673,-0.4341 12.33764,-0.90502 0.96636,-0.96636 -2.66032,-3.88568 -4.82723,-3.88568 -0.74701,0 -2.11894,0.68845 -3.04872,1.5299 -2.17293,1.96648 -8.1912,2.33518 -10.75,0.65859 -2.93062,-1.92021 -6.68816,-0.17389 -8.39005,3.8993 -1.56281,3.74034 -2.29254,3.9946 -4.49137,1.56492 -5.1621,-5.70406 6.69991,-14.82319 13.04199,-10.02627 2.25237,1.7036 7.89507,1.89085 7.9612,0.26418 0.13966,-3.43552 1.19211,-9.78912 1.82469,-11.01562 0.3989,-0.77344 1.00784,-4.14844 1.35319,-7.5 0.34534,-3.35156 1.05209,-8.28775 1.57054,-10.96931 0.66761,-3.45301 0.63129,-5.91484 -0.1245,-8.4375 -0.98223,-3.27852 -2.75419,-18.33356 -2.78145,-23.63186 -0.007,-1.32635 -1.39563,-3.64637 -3.36721,-5.625 -1.84557,-1.85217 -4.28968,-4.84414 -5.43134,-6.64883 -1.89985,-3.00322 -2.46962,-3.28825 -6.72427,-3.36385 -5.16621,-0.0918 -8.6804,-1.04483 -19.52394,-5.29475 -18.05803,-7.07752 -29.26844,-16.46639 -31.5058,-26.38658 -0.37917,-1.6812 -0.35364,-7.39125 0.0567,-12.68903 0.59903,-7.73338 1.29018,-10.76978 3.50582,-15.40218 1.51783,-3.17342 3.67143,-7.87924 4.78577,-10.45736 1.11434,-2.57813 2.85027,-6.3094 3.85761,-8.29172 1.00734,-1.98232 1.83153,-4.00649 1.83153,-4.49816 0,-0.49166 1.47132,-3.19399 3.26961,-6.00516 2.63969,-4.1265 3.75866,-5.11121 5.80807,-5.11121 3.09659,0 7.79732,-4.24612 7.79732,-7.04323 0,-2.87839 -3.51017,-5.77107 -9.25403,-7.62613 -3.94653,-1.27459 -5.35324,-1.37895 -6.75845,-0.50138 -2.3878,1.4912 -2.73752,1.40778 -2.73752,-0.65302 0,-1.86738 1.9915,-2.86735 9.64728,-4.84407 3.91221,-1.01012 14.6448,-0.90338 19.38819,0.19284 1.00292,0.23178 1.52304,-0.83231 1.90629,-3.90001 0.28987,-2.32031 1.25126,-5.65466 2.13639,-7.40966 0.88514,-1.755 1.60935,-3.88547 1.60935,-4.73438 0,-4.23902 4.04032,-4.81735 9.51416,-1.36186 7.45073,4.70343 11.80067,11.87858 10.71379,17.67216 -0.97993,5.22348 -3.51429,6.32046 -13.79816,5.97242 -8.10987,-0.27446 -8.73453,-0.16484 -9.00318,1.58007 -0.50085,3.2531 -4.35628,9.83393 -6.08221,10.38173 -0.9113,0.28922 -1.6569,1.04215 -1.6569,1.67314 0,0.631 -1.6875,2.69884 -3.75,4.5952 -2.35546,2.16571 -3.75,4.2763 -3.75,5.6755 0,1.22517 -0.88283,3.02652 -1.96183,4.00301 -2.71399,2.45613 -3.38444,3.90609 -6.03425,13.05002 -2.66049,9.18081 -3.07767,18.35378 -0.91628,20.14758 1.12691,0.93525 1.99591,0.85282 4.45312,-0.42239 5.2273,-2.71281 6.72715,-3.71621 9.17044,-6.13504 1.30209,-1.28906 5.80493,-5.4479 10.00631,-9.24185 4.20138,-3.79396 8.13867,-8.10473 8.74955,-9.5795 1.77279,-4.27992 13.46822,-12.91447 23.87669,-17.62781 2.57812,-1.16747 5.42005,-2.51432 6.3154,-2.993 0.89535,-0.47869 2.26645,-0.87034 3.04688,-0.87034 0.78043,0 1.41897,-0.3321 1.41897,-0.738 0,-0.40589 0.91741,-0.8071 2.0387,-0.89156 1.84692,-0.13913 4.29799,-0.91302 9.68005,-3.05637 4.88882,-1.9469 20.27555,-4.16019 23.42549,-3.3696 1.9516,0.48981 2.35576,1.15112 2.35576,3.85464 0,3.97615 -2.05068,6.20331 -7.04165,7.64765 -2.05678,0.59521 -5.21616,1.51208 -7.02085,2.03749 -1.80469,0.52541 -6.86719,2.29519 -11.25,3.93284 -4.38281,1.63766 -9.29083,3.47144 -10.90672,4.07505 -1.61588,0.60363 -3.51432,1.57438 -4.21875,2.15723 -0.70442,0.58284 -2.54641,1.20252 -4.09328,1.37705 -2.08215,0.23492 -2.89029,0.86509 -3.11208,2.4267 -0.34337,2.41773 0.44935,2.66917 2.56951,0.81498 2.39446,-2.09407 38.70662,-13.8853 39.70045,-12.89147 0.48156,0.48156 0.58129,2.21529 0.22165,3.85274 -0.52454,2.38825 -1.48595,3.33384 -4.86007,4.78016 -2.31338,0.99163 -5.56711,1.80297 -7.2305,1.80297 -1.66339,0 -3.84326,0.6194 -4.84415,1.37644 -1.00089,0.75703 -2.95507,1.38984 -4.3426,1.40625 -1.38754,0.0164 -2.78354,0.45169 -3.10221,0.96731 -0.31867,0.51562 -2.15764,0.9375 -4.08658,0.9375 -1.92895,0 -3.90795,0.37091 -4.3978,0.82425 -0.48984,0.45334 -2.47265,1.3298 -4.40625,1.9477 -2.04894,0.65476 -3.51562,1.7242 -3.51562,2.56341 0,1.91257 2.3013,1.47737 18.28125,-3.45723 12.48782,-3.85623 15.89812,-4.63625 16.71193,-3.82245 1.03977,1.03977 -1.93137,7.38015 -3.94351,8.41535 -1.49788,0.77062 -6.90562,2.02475 -16.98717,3.93951 -8.15928,1.54968 -12.26752,2.94869 -11.87754,4.04474 0.19832,0.55741 1.15893,0.90627 2.13469,0.77523 6.83611,-0.918 15.37822,-2.19328 17.94597,-2.67921 2.49582,-0.47232 3.04688,-0.28008 3.04688,1.06292 0,1.48249 -1.67501,3.44576 -5.787,6.78286 -0.79856,0.6481 -4.76957,1.59898 -8.82444,2.11309 -4.05488,0.51411 -8.15224,1.18222 -9.10525,1.48469 -1.64504,0.52212 -1.65074,0.64055 -0.11272,2.34005 0.89101,0.98454 1.94999,1.79009 2.35329,1.79009 0.85592,0 3.9938,2.73467 11.16362,9.72915 7.48583,7.30276 9.41001,9.82225 11.90118,15.58335 1.22629,2.83594 3.01789,6.84375 3.98133,8.90625 2.58677,5.53775 4.90159,11.75277 5.76141,15.46875 5.90986,25.54146 6.48863,29.92359 4.20271,31.82074 -1.71125,1.42021 -3.34663,-1.29466 -3.34663,-5.55567 0,-3.94005 -2.7017,-9.21125 -3.80563,-7.42505 -0.46227,0.74796 -0.42205,1.68231 0.0947,2.19902 0.49415,0.49415 0.89846,1.60262 0.89846,2.46324 0,0.86064 1.07874,4.6786 2.39722,8.48438 2.72918,7.87784 3.82138,12.57421 5.09764,21.91959 0.49293,3.60937 1.33712,8.88281 1.876,11.71875 0.53886,2.83594 1.41596,9.375 1.9491,14.53125 1.35835,13.1374 3.55398,26.23872 5.9885,35.73335 1.16117,4.52854 0.99612,9.7378 -0.30838,9.73339 -1.08768,-0.004 -7.7476,-17.95932 -8.59699,-23.17814 -0.99138,-6.09132 -2.76325,-8.95275 -3.80311,-6.14174 -1.06668,2.88354 -0.36703,13.47757 1.22447,18.54064 0.8104,2.57812 2.39383,8.27344 3.51872,12.65625 3.8422,14.96993 6.79422,23.37268 9.952,28.3277 1.73626,2.72446 3.16764,5.27429 3.18083,5.66629 0.0132,0.39201 1.50056,2.81346 3.30525,5.38101 3.51219,4.99684 4.13888,7.5 1.8777,7.5 -2.63287,0 -8.43281,-6.37358 -13.1277,-14.42604 -2.57812,-4.4219 -5.05825,-8.04749 -5.5114,-8.05689 -1.68421,-0.0349 0.50776,10.68941 3.06239,14.98293 0.4602,0.77344 1.99934,3.9375 3.42034,7.03125 C 400.55153,621.51661 409.2552,630 415.8697,630 c 4.79781,0 11.91696,-2.72778 15.83887,-6.06883 2.71487,-2.31279 3.37609,-3.57113 3.5761,-6.80557 0.13496,-2.18248 0.69024,-4.41301 1.23394,-4.95671 1.35478,-1.35478 5.86748,0.4221 6.55917,2.58266 0.29136,0.91009 0.92382,2.49845 1.40547,3.5297 2.57129,5.50528 4.69474,15.11779 5.17746,23.4375 0.52673,9.07845 0.45212,9.56776 -2.35901,15.46875 -3.51948,7.38793 -10.64935,16.0574 -15.1142,18.37792 -1.97213,1.02496 -6.64756,1.98826 -11.71875,2.41445 -4.64062,0.39 -11.8125,1.06165 -15.9375,1.49255 -7.61177,0.79512 -14.14522,-0.15075 -19.036,-2.75592 -1.64313,-0.87524 -2.83334,-0.89731 -4.9666,-0.0921 -2.14128,0.80825 -3.62741,0.77583 -6.27649,-0.13692 -3.634,-1.25209 -14.99644,-10.56244 -15.11881,-12.38831 -0.039,-0.58139 -0.70787,-1.58576 -1.48647,-2.23193 -1.98935,-1.65102 -7.53466,-13.36239 -9.76222,-20.61723 -1.02908,-3.35157 -2.06006,-8.625 -2.29107,-11.71875 -0.23102,-3.09375 -0.72896,-8.85942 -1.10653,-12.81261 -0.40037,-4.19188 -0.24703,-10.83447 0.36793,-15.9375 0.57994,-4.81244 1.51565,-13.39052 2.07936,-19.06239 0.56371,-5.67188 1.46577,-12 2.00456,-14.0625 1.55397,-5.94863 3.69735,-15.56466 4.49275,-20.15625 0.40194,-2.32032 1.41144,-6.66512 2.24332,-9.65512 0.83189,-2.99 1.51487,-6.99781 1.51775,-8.90625 0.003,-1.90844 0.40064,-4.94645 0.88392,-6.75113 0.48328,-1.80469 1.10958,-8.34375 1.39177,-14.53125 0.2822,-6.1875 0.68907,-12.12197 0.90419,-13.18772 0.21511,-1.06574 -0.40416,-7.39387 -1.37616,-14.0625 -0.97201,-6.66863 -1.77665,-14.36375 -1.78811,-17.10026 -0.0114,-2.73652 -0.40875,-6.74433 -0.88286,-8.90625 -0.47411,-2.16193 -1.36885,-6.44923 -1.98832,-9.52733 -1.44932,-7.20164 -3.09342,-9.61155 -7.44715,-10.91596 -6.24958,-1.87242 -6.89739,-0.44382 -3.2366,7.13752 4.66923,9.66977 4.09235,13.80158 -1.38265,9.90303 -3.72906,-2.65532 -4.13633,-2.46694 -3.41886,1.58134 1.00458,5.66826 1.42479,6.56883 3.29299,7.05737 1.82921,0.47835 5.66761,6.96904 5.66761,9.58387 0,0.81486 -0.82854,2.62463 -1.8412,4.02172 -1.01267,1.39709 -2.31987,5.28235 -2.90489,8.63392 -0.58503,3.35156 -1.46878,8.20312 -1.96389,10.78125 -2.24585,11.69457 -2.24358,11.70795 2.92736,17.20855 5.28039,5.61705 5.83162,8.11724 2.53362,11.49173 -3.66097,3.74588 -6.2161,9.77374 -7.61569,17.9664 -0.33278,1.94791 -0.94461,3.33181 -1.35963,3.07531 -0.41502,-0.2565 -2.1089,2.99358 -3.76418,7.2224 -3.04918,7.78988 -4.41194,12.56978 -7.68117,26.94186 -0.99697,4.38281 -2.24086,9.65625 -2.76423,11.71875 -6.72562,26.50486 -8.3617,33.3024 -8.68728,36.09375 -0.2105,1.80468 -1.23787,6.02343 -2.28305,9.375 -1.04517,3.35156 -2.40612,9.25781 -3.02432,13.125 -2.0405,12.76444 -2.99947,17.27784 -4.93354,23.21973 -1.59517,4.90074 -2.31772,5.95664 -4.35339,6.36186 -1.34242,0.26723 -4.55014,1.08564 -7.12827,1.81869 -4.17893,1.1882 -9.14018,1.58342 -33.75,2.68853 -3.60937,0.16208 -20.90625,-6.6e-4 -38.4375,-0.36163 z M 137.14707,512.57812 c 2.41367,-1.80396 0.65992,-3.3326 -4.50728,-3.92872 -2.56907,-0.29638 -6.86689,-0.87942 -9.55071,-1.29565 -5.09602,-0.79033 -7.77658,-0.0428 -7.77658,2.16875 0,2.18072 1.98104,2.79809 10.78125,3.35989 4.64062,0.29625 8.67327,0.61266 8.96144,0.70313 0.28817,0.0905 1.22951,-0.36286 2.09188,-1.0074 z m 8.16543,-0.58833 c 0,-2.24929 -2.36755,-4.23613 -4.20682,-3.53035 -1.91668,0.7355 -1.79354,3.10377 0.22244,4.27797 2.51891,1.46713 3.98438,1.19215 3.98438,-0.74762 z m 6.42821,-103.13696 c 2.28076,-1.44516 -0.61758,-2.21365 -7.82264,-2.07416 -5.49691,0.10643 -6.94177,-0.16247 -7.40851,-1.37874 -0.39008,-1.01656 0.035,-1.67171 1.29907,-2.00228 3.16653,-0.82806 2.10807,-1.94313 -2.85477,-3.00747 -5.85196,-1.25501 -5.57886,-1.26558 -5.57886,0.21567 0,1.71658 4.59722,5.76273 7.96875,7.01353 5.20531,1.93112 12.33225,2.54172 14.39696,1.23345 z m 177.74015,-8.10491 c 2.20919,-1.67079 1.20638,-2.96985 -2.9314,-3.79741 -2.42394,-0.48478 -3.02971,-0.24904 -3.54685,1.38029 -0.343,1.08071 -0.36057,2.39057 -0.0391,2.91081 0.84928,1.37417 4.40355,1.10493 6.51729,-0.49369 z M 130.2306,396.79687 c 3.86184,-2.19799 3.63888,-3.04687 -0.80027,-3.04687 -3.87776,0 -5.26058,1.04853 -4.38658,3.32615 0.67942,1.77053 1.68005,1.71665 5.18685,-0.27928 z m 209.90084,-3.52133 c 1.34511,-0.38763 2.05099,-1.21318 1.8672,-2.18376 -0.38227,-2.01884 -6.19752,-2.58478 -8.58698,-0.83568 -1.64846,1.20666 -1.65593,1.36571 -0.13559,2.88604 0.88495,0.88496 2.30283,1.41722 3.15084,1.18282 0.84801,-0.2344 2.51505,-0.70664 3.70453,-1.04942 z M 124.6875,387.30266 c 0,-0.7514 -8.39072,-0.31969 -9.29688,0.47832 -0.21484,0.18921 1.78907,0.34402 4.45313,0.34402 2.66406,0 4.84375,-0.37005 4.84375,-0.82234 z m -5.15625,-9.49016 c -0.31868,-0.51563 -1.5843,-0.9375 -2.8125,-0.9375 -1.2282,0 -2.49382,0.42187 -2.8125,0.9375 -0.34549,0.55901 0.78996,0.9375 2.8125,0.9375 2.02254,0 3.15799,-0.37849 2.8125,-0.9375 z m -4.55278,-9.59298 c 0.91467,-1.47996 -1.66372,-2.5619 -6.22847,-2.61356 -2.32031,-0.0263 -6.75,-0.65894 -9.84375,-1.40596 -8.00484,-1.93284 -10.210439,-1.67136 -5.15625,0.61131 2.320312,1.04793 4.951303,2.29253 5.846653,2.76577 0.895347,0.47323 3.507167,0.86042 5.804047,0.86042 2.29688,0 4.4124,0.38227 4.70116,0.84949 0.62373,1.00923 4.05771,0.25754 4.87661,-1.06747 z m -5.99409,-12.59041 c -0.64454,-0.26007 -1.69922,-0.26007 -2.34375,0 -0.64454,0.26007 -0.11719,0.47287 1.17187,0.47287 1.28906,0 1.81641,-0.2128 1.17188,-0.47287 z m 254.52149,-16.75003 c 10.48276,-4.1472 10.54233,-5.80625 0.0785,-2.18502 -5.22751,1.80909 -12.02184,5.19406 -12.02184,5.98935 0,0.51697 5.23725,-1.15125 11.94337,-3.80433 z m 15.65038,-6.14973 c 1.94552,-1.83014 -0.45514,-1.80404 -3.83341,0.0417 l -3.60409,1.9691 L 375,334.14634 c 1.80469,-0.32662 3.675,-0.96424 4.15625,-1.41695 z M 303.75,321.19405 c 0,-2.02932 -1.53023,-3.38155 -3.82668,-3.38155 -1.36348,0 -1.00341,2.03855 0.69073,3.91056 2.10654,2.3277 3.13595,2.15404 3.13595,-0.52901 z m -146.08944,-0.2456 c 2.32153,-2.10095 2.158,-3.32936 -0.39494,-2.96678 -1.35558,0.19253 -2.21642,1.05337 -2.40895,2.40895 -0.35595,2.50632 0.46939,2.67052 2.80389,0.55783 z m 165.65401,-3.45658 c 1.19755,-1.44296 0.48444,-2.49839 -1.67395,-2.47752 -2.24601,0.0217 -4.1498,1.51919 -3.42415,2.69334 0.8864,1.4342 3.8322,1.30951 5.0981,-0.21582 z m -1.35029,-4.90259 c 1.79808,-1.79807 1.84833,-2.67338 0.23055,-4.01602 -0.95234,-0.79037 -1.98094,-0.26962 -4.40266,2.22896 l -3.15998,3.26028 2.92943,0 c 1.6112,0 3.5924,-0.66294 4.40266,-1.47322 z m -176.10919,-8.0896 c 1.51765,-2.88352 1.87603,-5.87345 0.4299,-3.5867 -0.48059,0.75996 -1.81308,1.39277 -2.9611,1.40625 -1.51356,0.0178 -2.29895,0.79758 -2.85734,2.83702 -1.14292,4.17444 -0.33145,5.54906 2.08249,3.52768 1.08549,-0.90897 2.57321,-2.79188 3.30605,-4.18425 z m 172.11797,2.38627 c 2.16318,-1.95766 2.18759,-3.13595 0.065,-3.13595 -1.74351,0 -4.26379,3.14921 -3.29534,4.11768 0.86201,0.86199 1.36049,0.7105 3.23039,-0.98173 z"
     id="path20635"
     inkscape:connector-curvature="0" />
</svg>
