<?xml version="1.0"?>
<svg xmlns:rdf="http://www.w3.org/1999/02/22-rdf-syntax-ns#" xmlns="http://www.w3.org/2000/svg" xmlns:cc="http://web.resource.org/cc/" xmlns:dc="http://purl.org/dc/elements/1.1/" xmlns:svg="http://www.w3.org/2000/svg" id="svg2" viewBox="0 0 312 521" version="1.0">
  <g id="g10910" fill-rule="evenodd" transform="translate(-42,-41)" stroke="#000" stroke-width="1px" fill="#030000">
    <path id="path2161" d="m251.85 119.04c7.85 10.45-9.81 16.76-18.17 30.55-2.85 12.24-2.21 36.87 14.19 53.8 32.19 26.82 37.42 29.03 43.55 46.3 9.17 26.46 0.66 51.88-4.67 74.37l-5.6 35.26c5.16 36.57 13.23 73.14 2.24 109.71 0 0-9.41 23.85-9.52 26.86-0.11 3.35 11.7 27.23 11.2 34.15-5.93 6.24-8.11 9.19-35.45 7.29-15.49-1.07-27.84 11.85-40.11 15.65-9.69 1.43-42.85 7.71-103.55-6.71l-58.21-20.15c22.987-4.05 50.354-22.62 83.36-59.89 26.18-30.63 45.98-58.47 50.38-109.15 1.72-14.81 16.41-42.72 26.9-67.16 3.57-13.91 10.43-44.58-12.88-91.8l-23.47-35.75c-3.39-5.41-0.4-12.01 1.09-17.42-10.83 1.46-14.09-3.89-20.15-6.71 2.78-7.2 4.73-14.8 15.67-17.92 0.6 0 15.85-1.36 15.05 0.99-2.33 23.07-2.99 36.58 17.19 49.02 10.61-1.68-1.65-21.96 22.89-24.57 11.99-1.28 1.23-20.59 8.68-27.67 2.39-2.06 9.37-4.87 19.39 0.95z"/>
    <path id="path3134" d="m339.63 202.75c-2-0.04-13.78 2.71-14.25 7.25l25-4.75-2.5 1-21 5.25 21.25-3.25-4.75 1.75-18.75 4.5 20.75-3c-10.76 5.32-17.79 2.86-29.25 11.75-1.78 3.99 9.28 6.24 18 6.25-7.75 0.48-15 2.44-22.75-0.25-18.07-4.54-30.27-13.97-44.75-21.5 4.57-3.24 5.02-7.07 6.5-10.75-0.49 0.73 0.1-8.29 0.46-5 0.29 2.71 26.96 29.78 34.54 28 8.2-1.15 10.09-5.9 14-9.5 5.13-3.37 4.08-6.29 17.5-10.25 2.01 0.61 1.93 0.58 0 2.5z"/>
    <path id="path5074" d="m135.38 154l-13-21c-10.7-1.57-21.12-4.08-33.748 0.75l-13.75 4.75 17-3-11.75 13.25 13.25-11.25-8.5 17.5 8-10.25-3 13.5 7-13.5c0.498-2.33 6.238-5.92 9.248-6.75 5.35 2.27 8.68 1.28 12.75 1l0.25 22 16.25-7z"/>
    <path id="path7014" d="m250.63 78.5c-6.15 9.956-17.88 2.044-27 2.5l7 8.5c-2.91-0.61-5.24 0.996-10.75-1.5-4.77-2.267-3.74-2.021-6.75-1.5v3.5c-2.35 1.969-11.16 2.045-17.38 0.177l-0.62 23.323s-5 5.5-3.5 2.5 4.15-29.5 4.15-29.5c-2.61-8.833-6.53-17.667-5.65-26.5 3.67-28.903 46.55-8.728 51-5.5 3.69 3.134 11.74 12.218 9.5 24z"/>
  </g>
  <metadata>
    <rdf:RDF>
      <cc:Work>
        <dc:format>image/svg+xml</dc:format>
        <dc:type rdf:resource="http://purl.org/dc/dcmitype/StillImage"/>
        <cc:license rdf:resource="http://creativecommons.org/licenses/publicdomain/"/>
        <dc:publisher>
          <cc:Agent rdf:about="http://openclipart.org/">
            <dc:title>Openclipart</dc:title>
          </cc:Agent>
        </dc:publisher>
        <dc:title>Dark lady</dc:title>
        <dc:date>2007-12-09T12:10:37</dc:date>
        <dc:description>Silhouette of a mysterious woman.</dc:description>
        <dc:source>http://openclipart.org/detail/9626/dark-lady-by-romanov</dc:source>
        <dc:creator>
          <cc:Agent>
            <dc:title>Romanov</dc:title>
          </cc:Agent>
        </dc:creator>
        <dc:subject>
          <rdf:Bag>
            <rdf:li>clip art</rdf:li>
            <rdf:li>clipart</rdf:li>
            <rdf:li>girl</rdf:li>
            <rdf:li>image</rdf:li>
            <rdf:li>media</rdf:li>
            <rdf:li>people</rdf:li>
            <rdf:li>public domain</rdf:li>
            <rdf:li>silhouette</rdf:li>
            <rdf:li>svg</rdf:li>
            <rdf:li>woman</rdf:li>
          </rdf:Bag>
        </dc:subject>
      </cc:Work>
      <cc:License rdf:about="http://creativecommons.org/licenses/publicdomain/">
        <cc:permits rdf:resource="http://creativecommons.org/ns#Reproduction"/>
        <cc:permits rdf:resource="http://creativecommons.org/ns#Distribution"/>
        <cc:permits rdf:resource="http://creativecommons.org/ns#DerivativeWorks"/>
      </cc:License>
    </rdf:RDF>
  </metadata>
</svg>
