<?xml version="1.0" encoding="UTF-8" standalone="no"?>
<!-- Created with Inkscape (http://www.inkscape.org/) -->

<svg
   xmlns:dc="http://purl.org/dc/elements/1.1/"
   xmlns:cc="http://creativecommons.org/ns#"
   xmlns:rdf="http://www.w3.org/1999/02/22-rdf-syntax-ns#"
   xmlns:svg="http://www.w3.org/2000/svg"
   xmlns="http://www.w3.org/2000/svg"
   xmlns:sodipodi="http://sodipodi.sourceforge.net/DTD/sodipodi-0.dtd"
   xmlns:inkscape="http://www.inkscape.org/namespaces/inkscape"
   width="267.29871"
   height="800"
   id="svg3005"
   version="1.1"
   inkscape:version="0.48.4 r9939"
   sodipodi:docname="Новый документ 2">
  <defs
     id="defs3007" />
  <sodipodi:namedview
     id="base"
     pagecolor="#ffffff"
     bordercolor="#666666"
     borderopacity="1.0"
     inkscape:pageopacity="0.0"
     inkscape:pageshadow="2"
     inkscape:zoom="0.35"
     inkscape:cx="-426.68962"
     inkscape:cy="393.6256"
     inkscape:document-units="px"
     inkscape:current-layer="layer1"
     showgrid="false"
     fit-margin-top="0"
     fit-margin-left="0"
     fit-margin-right="0"
     fit-margin-bottom="0"
     inkscape:window-width="1280"
     inkscape:window-height="1002"
     inkscape:window-x="1912"
     inkscape:window-y="-8"
     inkscape:window-maximized="1" />
  <metadata
     id="metadata3010">
    <rdf:RDF>
      <cc:Work
         rdf:about="">
        <dc:format>image/svg+xml</dc:format>
        <dc:type
           rdf:resource="http://purl.org/dc/dcmitype/StillImage" />
        <dc:title></dc:title>
      </cc:Work>
    </rdf:RDF>
  </metadata>
  <g
     inkscape:label="Layer 1"
     inkscape:groupmode="layer"
     id="layer1"
     transform="translate(-207.4039,-125.98779)">
    <path
       style="fill:#000000"
       d="m 393.08542,922.57966 -0.91109,1.11604 c -22.87415,-0.46044 -30.15997,-1.39804 -35.08451,-5.18294 0.14772,-2.49498 0.33938,-4.18942 0.0312,-5.63133 -2.50152,-6.34052 4.9984,-13.56897 5.30445,-16.34901 -2.38278,-0.17597 -2.19635,-0.1682 -3.5843,0.0893 -4.01251,-14.93724 -0.81145,-37.12362 -4.95948,-43.62668 -20.26557,-1.19478 -35.76319,-0.58341 -57.37017,-0.37148 0.57317,8.95033 -1.70009,26.12226 0.67281,36.65925 2.19315,9.73861 -1.73656,7.54698 -10.69175,8.53651 0,0.18744 1.31191,4.66461 2.12292,6.62049 1.37481,3.31595 1.25309,6.16535 0.92322,11.6356 0.24773,0.30822 0.63628,0.94079 0.6394,1.74244 l 0.0196,5.07683 c -8.19473,2.29149 -38.27147,4.79207 -54.85528,0.008 -2.07107,-0.59742 -1.1557,-3.45662 -0.9018,-6.71549 0.68261,-0.30931 1.19557,-0.50308 1.27909,-0.96861 -1.33378,-7.05894 1.04443,-9.33815 4.3123,-13.43948 1.98079,-2.48598 3.48291,-4.83411 3.58779,-5.86054 -0.22631,-0.13871 -1.30879,0.10088 -1.55921,0.0797 -2.44778,-15.49784 -5.91261,-29.37191 -4.13517,-44.80533 -5.83751,0.65152 -23.78792,1.9248 -26.25771,-0.69627 9.26952,-104.77657 5.26152,-216.95506 20.91689,-303.86964 0.36574,-2.03058 0.76983,-2.83888 1.25352,-3.13779 -1.03761,-4.35716 -1.41737,-4.07784 -3.19779,-8.83131 -16.59427,-44.30519 -27.39496,-90.81036 -21.70291,-137.25805 1.43087,-11.67625 -0.25775,-24.73122 0.67346,-34.4819 0.53939,-5.64836 0.70127,-21.18335 0.33771,-34.52434 -0.81922,-30.06877 0.24133,-41.54694 4.86549,-52.65458 6.13245,-14.73087 19.79685,-25.89777 29.9816,-24.50179 2.39411,0.32815 5.09557,0.88161 6.00318,1.22989 4.96971,-4.06059 25.39114,-10.83724 27.57812,-14.32536 -0.0443,-1.05582 -0.34802,-1.90608 -0.8506,-2.59428 -1.16252,-1.5919 -0.29115,-1.946 0.98169,-2.79809 1.60917,-1.07726 3.87233,-2.36926 8.83311,-4.69012 6.12562,-2.86585 9.50723,-4.35915 14.78981,-9.15204 6.781,-6.15238 7.87009,-6.26818 15.22476,-5.06099 1.63002,-2.24507 2.07231,-8.73335 0.78596,-10.90813 -4.6755,2.13684 -2.82631,-7.47025 -3.66361,-16.85453 -0.78545,-8.80324 -0.76206,-11.64678 2.43965,-12.2708 1.17886,-0.22976 1.521,0.0701 2.12496,0.29003 -0.27809,-3.40285 0.143,-4.96122 0.143,-8.49816 0,-12.21596 5.67301,-25.33673 13.69744,-31.67961 11.73589,-9.2767 28.67187,-10.52755 43.25222,-3.19454 5.12106,2.57558 12.0155,9.98618 15.13493,16.26791 3.30527,6.65603 5.36857,20.54325 4.58719,30.87455 -0.28876,3.81755 -1.03238,6.37623 -1.14175,8.93055 6.2026,-0.5293 3.66891,7.1831 3.31224,8.32384 -0.97282,3.1115 -2.0914,7.79245 -2.48431,10.40265 -0.90789,6.03219 -1.93119,10.59596 -5.38498,7.65128 -4.02892,6.94135 -6.23217,13.0865 -11.99161,20.61883 4.62554,4.7529 18.97734,12.8184 19.67418,16.04045 -1.35919,1.76334 -3.21543,2.75303 -4.75307,4.08299 5.88153,6.85883 13.3073,14.38742 23.12282,19.61322 7.17253,2.16642 8.46229,5.80098 10.13232,12.89838 3.18929,13.55376 1.0522,55.00707 -3.72178,72.19251 -4.03233,14.51573 -4.73259,15.15692 -5.37024,30.36053 -1.59842,38.111 2.86603,70.98654 2.36745,110.78171 -1.41947,113.29165 2.29912,229.34263 -1.64388,351.1895 -1.14676,0 -1.43131,0.23415 -4.96194,0.52037 0,3.55141 7.18973,26.74191 7.2564,31.85186 -1.24095,0.90194 -0.91261,0.71334 -2.12074,1.17596 2.11958,3.78344 7.76479,8.55387 19.55987,13.25537 14.10393,5.62182 40.08152,8.03902 36.60921,24.75886 0.0886,0.0654 0.35209,0.19442 0.38492,0.23226 l -0.0903,2.29178 c -0.0407,1.031 -2.15611,0.9132 -6.71273,0.93012 -28.90681,0.10712 -53.04966,-0.47686 -74.81423,-3.39656 z"
       id="path2469"
       inkscape:connector-curvature="0"
       sodipodi:nodetypes="ccccccccscscscsccsccccscssssssccssssccsscssssscsscccccssssccccsccsscc" />
  </g>
</svg>
