<?xml version="1.0" standalone="no"?>
<!DOCTYPE svg PUBLIC "-//W3C//DTD SVG 20010904//EN"
 "http://www.w3.org/TR/2001/REC-SVG-20010904/DTD/svg10.dtd">
<svg version="1.0" xmlns="http://www.w3.org/2000/svg"
 width="719.000000pt" height="1989.000000pt" viewBox="0 0 719.000000 1989.000000"
 preserveAspectRatio="xMidYMid meet">
<metadata>
Created by potrace 1.15, written by Peter Selinger 2001-2017
</metadata>
<g transform="translate(0.000000,1989.000000) scale(0.100000,-0.100000)"
fill="#000000" stroke="none">
<path d="M3690 19624 c-199 -25 -436 -85 -569 -145 -100 -45 -224 -133 -292
-207 -51 -55 -78 -99 -153 -252 -264 -532 -443 -1114 -525 -1705 -40 -283 -50
-311 -143 -411 -55 -59 -114 -101 -331 -235 -197 -121 -271 -204 -332 -370
-21 -57 -82 -200 -135 -319 -187 -413 -215 -510 -215 -746 l0 -162 -45 -6
c-100 -12 -170 -48 -170 -86 0 -26 26 -38 94 -46 78 -9 91 -34 90 -164 0 -83
-8 -122 -58 -308 -31 -118 -62 -251 -68 -295 -5 -45 -25 -145 -44 -222 -39
-160 -61 -294 -104 -625 -17 -129 -39 -276 -50 -326 -57 -264 -68 -608 -37
-1124 9 -146 19 -341 22 -435 3 -93 11 -205 17 -248 19 -140 -17 -286 -118
-475 -32 -59 -89 -168 -127 -242 l-69 -135 5 -71 c14 -247 268 -426 582 -411
97 4 175 23 222 53 l22 14 -34 51 c-78 115 -116 349 -73 445 14 31 34 37 68
19 22 -11 86 -80 106 -113 7 -12 81 38 119 80 55 62 85 139 85 222 0 119 -53
207 -152 253 -42 20 -46 25 -52 70 -23 170 -16 411 19 648 24 159 84 470 115
595 38 151 60 279 115 660 52 356 82 518 127 670 16 58 33 113 35 123 18 60
43 -28 153 -538 18 -82 50 -203 71 -269 21 -65 44 -157 49 -205 19 -149 77
-476 130 -728 70 -338 74 -370 66 -638 -20 -721 -22 -630 18 -950 20 -159 58
-492 86 -740 27 -247 59 -508 69 -580 40 -262 53 -430 61 -820 9 -421 5 -382
85 -765 54 -261 57 -396 15 -685 -58 -408 -101 -564 -210 -785 -82 -164 -135
-340 -179 -590 -53 -302 -71 -604 -71 -1210 0 -516 -14 -970 -35 -1190 -19
-194 -40 -341 -115 -801 -33 -202 -71 -455 -85 -563 -14 -108 -32 -238 -40
-289 -23 -137 -30 -368 -15 -479 26 -190 85 -324 191 -429 93 -93 125 -104
282 -95 333 18 369 26 440 105 65 73 71 111 70 481 0 179 -6 386 -12 460 -9
94 -10 237 -6 470 4 225 3 371 -5 445 -30 294 -23 412 46 700 19 83 49 211 65
285 37 165 97 318 265 676 296 630 335 772 399 1449 36 382 41 409 82 479 100
172 175 404 252 781 17 83 42 193 55 245 13 52 36 151 51 220 15 69 32 134 37
144 21 40 30 -9 19 -109 -17 -146 -13 -408 10 -717 27 -373 28 -633 0 -845
-49 -386 -50 -656 -5 -1443 34 -576 38 -1078 11 -1220 -26 -136 -111 -465
-199 -770 -54 -190 -61 -245 -78 -645 -12 -272 -23 -337 -99 -562 -66 -198
-78 -260 -61 -322 24 -91 58 -101 351 -101 381 -1 574 48 743 186 l59 47 -7
71 c-10 119 -25 329 -41 576 -9 129 -25 316 -35 415 -57 531 -42 892 47 1155
14 41 95 262 180 490 189 505 251 691 308 925 86 350 124 643 132 1006 6 271
-4 451 -33 609 -7 41 -20 113 -29 160 -18 100 -21 337 -5 455 15 113 45 266
80 412 61 255 114 302 180 160 43 -93 100 -334 100 -424 0 -20 5 -33 13 -33
18 0 179 142 261 231 86 92 193 224 324 400 l102 136 20 154 c28 220 47 456
61 749 9 191 16 264 27 290 9 19 48 67 87 105 114 114 107 100 84 175 -45 145
-85 378 -110 642 -10 111 -9 150 7 305 28 264 26 708 -4 933 -12 91 -34 215
-48 275 -40 175 -46 230 -33 315 22 150 68 248 254 545 119 191 155 267 204
433 24 82 134 585 158 724 13 71 -51 289 -132 451 -73 146 -149 260 -370 554
-215 285 -241 332 -449 808 -70 160 -165 373 -211 475 -46 102 -113 259 -150
350 -103 257 -184 377 -295 443 -52 30 -147 57 -203 57 -31 0 -44 6 -65 32
-50 59 -81 106 -168 255 -47 81 -105 177 -129 213 l-43 65 -5 580 c-7 705 -23
919 -94 1235 -89 399 -303 745 -556 898 -108 65 -261 100 -377 86z m1300
-5111 c18 -20 79 -109 137 -197 113 -174 162 -226 478 -515 228 -209 333 -327
404 -452 77 -137 133 -356 133 -524 1 -158 -34 -264 -115 -352 -50 -55 -88
-79 -186 -123 -67 -29 -78 -31 -112 -21 -49 15 -119 79 -230 212 -55 66 -120
131 -165 165 -203 153 -429 456 -548 734 -27 63 -59 129 -71 145 -40 54 -55
93 -55 144 0 59 21 111 88 218 97 155 129 242 120 332 -5 47 -5 47 23 43 39
-6 49 24 49 139 0 49 4 89 9 89 5 0 23 -16 41 -37z"/>
</g>
</svg>
