<?xml version="1.0" encoding="UTF-8" standalone="no"?>
<!-- Created with Inkscape (http://www.inkscape.org/) -->

<svg
   xmlns:dc="http://purl.org/dc/elements/1.1/"
   xmlns:cc="http://creativecommons.org/ns#"
   xmlns:rdf="http://www.w3.org/1999/02/22-rdf-syntax-ns#"
   xmlns:svg="http://www.w3.org/2000/svg"
   xmlns="http://www.w3.org/2000/svg"
   xmlns:sodipodi="http://sodipodi.sourceforge.net/DTD/sodipodi-0.dtd"
   xmlns:inkscape="http://www.inkscape.org/namespaces/inkscape"
   id="svg20085"
   version="1.1"
   inkscape:version="0.92.4 (5da689c313, 2019-01-14)"
   width="450"
   height="681.5625"
   viewBox="0 0 450 681.5625"
   sodipodi:docname="plant_withered.svg">
  <metadata
     id="metadata20091">
    <rdf:RDF>
      <cc:Work
         rdf:about="">
        <dc:format>image/svg+xml</dc:format>
        <dc:type
           rdf:resource="http://purl.org/dc/dcmitype/StillImage" />
        <dc:title></dc:title>
      </cc:Work>
    </rdf:RDF>
  </metadata>
  <defs
     id="defs20089">
    <marker
       inkscape:stockid="Arrow1Lstart"
       orient="auto"
       refY="0.0"
       refX="0.0"
       id="Arrow1Lstart"
       style="overflow:visible"
       inkscape:isstock="true">
      <path
         id="path1900"
         d="M 0.0,0.0 L 5.0,-5.0 L -12.5,0.0 L 5.0,5.0 L 0.0,0.0 z "
         style="fill-rule:evenodd;stroke:none;stroke-width:1pt;stroke-opacity:1;fill:#000000;fill-opacity:1"
         transform="scale(0.8) translate(12.5,0)" />
    </marker>
  </defs>
  <sodipodi:namedview
     pagecolor="#ffffff"
     bordercolor="#666666"
     borderopacity="1"
     objecttolerance="10"
     gridtolerance="10"
     guidetolerance="10"
     inkscape:pageopacity="0"
     inkscape:pageshadow="2"
     inkscape:window-width="1920"
     inkscape:window-height="986"
     id="namedview20087"
     showgrid="false"
     inkscape:zoom="0.8"
     inkscape:cx="340.35713"
     inkscape:cy="385.63262"
     inkscape:window-x="-11"
     inkscape:window-y="-11"
     inkscape:window-maximized="1"
     inkscape:current-layer="svg20085" />
  <path
     id="path20635"
     style="fill:#000000;marker-start:url(#Arrow1Lstart)"
     d="m 223.49425,52.214831 c -2.34446,-0.08415 -4.8005,1.290763 -5.89275,3.745891 -0.1484,0.950991 -0.45757,1.960509 -0.93618,3.008113 -0.0613,0.172372 -0.12435,0.326078 -0.18796,0.480451 0.35769,-0.3271 0.76891,-0.69144 1.26018,-1.138425 0.61518,-0.559731 1.23032,-1.119405 1.84552,-1.679136 2.0473,-1.862734 4.09467,-3.113921 6.04491,-3.884326 -0.66884,-0.32724 -1.3935,-0.505999 -2.13372,-0.532568 z m -33.52356,5.552061 c -0.99407,0.07632 -1.98101,0.463671 -2.7638,1.175885 -3.94084,3.585562 -5.53341,6.363004 -5.79251,10.102505 -0.19543,2.820257 -0.62337,3.900611 -1.54658,3.900611 -0.70238,0 -1.39461,-0.703576 -1.53763,-1.563502 -0.65922,-3.963875 -1.2025,-5.028981 -3.69282,-7.244227 -2.90521,-2.584318 -9.68198,-4.136993 -11.36665,-2.604208 -0.44361,0.403618 -1.01915,2.433932 -1.38369,4.705164 2.58615,1.605662 4.84561,3.544097 6.70185,5.845219 0.2663,0.330128 0.49615,0.682423 0.73033,1.032563 0.30605,0.327373 0.69622,0.745942 1.09549,1.162854 3.12611,-1.620418 2.88309,-0.726837 1.17426,1.26546 0.85066,0.960443 1.6203,1.947319 1.90816,2.736129 0.518,1.419462 0.64198,2.933749 0.96303,4.400607 l -13.52541,7.283315 c -11.28342,6.07584 5.80309,-8.764207 10.65422,-14.420051 -0.42809,-0.483326 -0.7528,-0.825377 -1.17426,-1.26546 -0.36571,0.189565 -0.76707,0.408556 -1.22616,0.667746 l -13.18174,7.439665 c 0.28255,0.978904 0.48831,1.980176 0.82162,2.944596 -0.0459,-0.03712 0.18467,0.155766 0.006,0.01304 0.0517,0.148835 0.0967,0.299524 0.15573,0.446248 0.14876,0.369638 1.08862,1.217155 0.76971,0.951131 -0.39597,-0.330324 -0.67768,-0.758432 -1.0042,-1.146568 -0.21664,-0.257511 -0.80703,-0.511237 -0.62472,-0.789894 0.009,-0.01368 0.40295,0.300506 0.70348,0.539083 -0.002,-0.0044 -0.004,-0.0086 -0.006,-0.01304 0.0825,0.06673 0.16292,0.132872 -0.99346,-0.804553 -0.51248,-0.543143 -1.04884,-1.067717 -1.53764,-1.628648 -0.20574,-0.236109 -0.36158,-0.50487 -0.54238,-0.757321 0.1121,0.02954 0.20506,0.0736 0.004,-0.201953 -0.70344,-0.960047 -1.43947,-1.233747 -2.59195,-2.029295 -2.6003,-1.794969 -4.42494,-3.684145 -5.59383,-5.526003 -0.55821,0.383656 -1.1514,0.732092 -1.76496,1.019534 1.82867,1.449579 3.47671,3.678085 4.65585,6.80612 1.69118,4.486385 0.81844,1.783901 1.95112,6.278439 0.24098,0.956195 0.48194,1.276047 0.50659,2.46903 0.051,2.470354 -0.0402,2.411768 -0.60862,4.247515 0.0904,-0.284983 0.36661,-1.138904 0.27209,-0.85504 -0.25465,0.764728 -0.41542,1.558281 -0.75181,2.296394 -1.38155,3.031367 -3.42067,4.895718 -6.27941,6.742598 -14.89672,9.62417 4.58513,-24.600692 -9.72877,-14.270211 -0.59577,0.42997 -0.88469,0.657899 -1.08834,1.065136 -0.0478,0.20378 -0.0985,0.407065 -0.14678,0.610744 -0.0461,0.249743 -0.0492,0.57204 -0.0394,1.016276 0.91508,2.383538 0.9014,2.289436 1.93322,5.493431 0.2578,0.800531 0.42793,1.627145 0.74823,2.40877 0.13637,0.332764 1.2194,1.728164 1.28165,2.079784 0.062,0.34984 -0.40127,-0.60808 -0.60145,-0.91204 -9.39064,-14.259345 -4.61088,24.04823 -14.67998,10.17742 -1.5625,-2.15245 -2.75348,-4.34342 -3.76084,-6.78169 -0.94299,-2.28245 -1.29076,-4.945859 -2.43802,-7.183969 -0.14573,-0.355672 -0.4433,-1.08271 -0.71242,-1.741025 -0.45478,0.307194 -0.79968,0.734253 -0.98452,1.283375 -0.24585,0.730442 -0.0929,2.723152 0.33832,4.428299 1.184,4.6819 -1.56237,6.62928 -5.51327,3.91038 -0.43168,-0.29707 -0.96707,-0.56425 -1.49467,-0.76872 -0.0304,0.46963 -0.0842,0.7841 -0.12889,1.0065 0.14018,0.34372 0.30242,0.67984 0.45825,1.01791 0.0365,0.0267 0.0353,0.0313 0.077,0.0619 -0.46224,-1.62794 0.65408,1.16196 0.44751,0.89413 -0.13184,-0.17094 -0.29032,-0.46537 -0.44572,-0.78012 0.34392,0.73705 0.6987,1.46967 1.02927,2.2117 0.23577,0.52923 0.27934,0.95979 0.15573,0.19707 2.24421,3.67468 -2.42549,-3.61547 1.26196,2.16285 0.12607,0.19757 -0.4285,-0.82587 -0.3222,-0.61889 0.19048,0.37088 0.41013,0.73158 0.61398,1.09771 1.5653,0.97931 1.28917,0.87867 2.98934,3.24264 1.37231,3.91466 1.04251,1.99751 1.15814,5.72795 0.24868,8.02286 -4.3318,4.06986 -8.98771,-0.29315 -0.0706,0.36018 -0.17626,0.67003 -0.31326,0.89738 2.47906,1.49054 4.69365,4.26263 5.93931,8.39406 0.43542,-0.36574 0.89439,-0.72951 1.39085,-1.08794 3.33762,-2.4097 7.05817,-4.41695 10.99074,-5.91688 0.77267,-0.2947 1.57545,-0.51572 2.36463,-0.77198 0.0745,-0.0519 0.14493,-0.10861 0.22017,-0.15961 0.0362,-0.0245 0.12414,-0.0308 0.19332,-0.0277 0.0692,0.003 0.11856,0.0158 0.077,0.0309 -0.16114,0.058 -0.32723,0.10334 -0.49046,0.15635 -0.88577,0.61721 -1.72465,1.28871 -2.58838,1.93157 -14.14144,10.5253 28.40699,-0.98179 14.76411,10.07482 -1.09016,0.88351 -2.07883,1.88393 -3.27037,2.65144 -3.56148,2.29407 -1.43607,0.58356 -3.41178,1.30781 -2.81225,1.03089 -5.45239,2.36669 -7.77407,4.15794 -2.73105,2.10707 -5.3625,3.2586 -7.72754,3.68726 0.57428,1.58034 1.17957,3.15258 1.81508,4.71493 1.7137,2.51953 1.16827,1.52426 -2.79243,-2.1661 -6.6449,-6.19161 -4.8711,1.17602 -3.55141,8.09763 0.60337,0.6007 1.2425,1.16527 1.95292,1.65308 14.58324,10.01378 0.76945,23.91887 -12.42277,12.41845 -0.871402,-0.75965 -1.810843,-1.45847 -2.613434,-2.27848 -1.777729,-1.81631 -2.913192,-3.09539 -3.923733,-4.35012 -0.203633,5.06952 -5.851964,8.36263 -13.222907,5.51624 0.566189,0.9903 1.182246,1.95571 1.897426,2.86967 1.96624,2.51275 4.080025,4.92848 6.121881,7.39081 2.646318,2.80448 5.045505,5.36155 7.68636,8.08298 2.378517,-2.13055 3.886567,-2.23018 3.107486,2.57652 -0.662761,4.08904 1.452961,9.56916 -1.988715,12.26698 -5.472416,4.28954 -9.593003,1.50531 -12.660842,-1.4267 -1.82792,1.94014 -2.68876,2.13716 -1.53942,-1.52442 -0.06128,-0.0629 -0.131312,-0.13209 -0.191533,-0.19381 -1.367945,-1.40183 -2.722896,-2.81362 -4.066935,-4.23447 -1.704863,-1.8023 -3.386943,-3.62339 -5.080087,-5.4348 -1.827855,-2.2048 -5.447706,-6.5314 -7.106395,-8.70188 -0.106078,-0.1388 -0.202757,-0.2831 -0.306094,-0.42344 0.396741,1.41869 0.630089,3.02366 0.630089,4.83871 0,1.85953 -0.116204,3.14909 0.264923,4.94131 0.05541,0.26058 0.20101,0.96186 0.345475,0.73127 0.0501,-0.08 -0.436288,-1.53855 0.06981,-1.04559 0.749975,0.73046 1.408275,1.53547 2.112229,2.30291 2.997733,4.14891 1.268303,1.96594 3.417155,4.4576 0.34368,0.39851 0.671663,0.80866 1.020314,1.20358 0.03756,0.0425 0.192081,0.12531 0.136042,0.10586 -4.782147,-1.6599 -6.03234,-2.60346 -7.038374,-2.7801 0.70273,0.34593 1.339979,1.8607 7.851045,4.07976 -0.209574,-0.54219 -0.400495,-1.08948 -0.553118,-1.64818 -0.227582,-0.83312 2.610909,2.32875 1.720214,2.04557 -0.431303,-0.13712 -0.779211,-0.26519 -1.167096,-0.39739 0.752484,1.9468 1.795673,3.80971 2.624174,5.73447 2.089456,4.85419 0.376341,4.98402 -2.744106,3.3534 4.860313,5.1685 2.7804,1.89565 -1.165306,13.63992 -3.030565,9.02038 -4.084457,-1.953 -5.348591,-10.22303 -1.774896,-0.21096 -3.470143,-0.81125 -5.137368,-1.48207 -3.217741,8.7548 -4.728997,5.79355 0.490466,11.14321 -0.635472,-0.4616 -1.286189,-0.90592 -1.906375,-1.38434 -0.03178,-0.0245 0.13917,0.0455 0.125302,0.01 -0.0012,-0.004 -0.38031,-0.42083 -0.404546,-0.43322 -0.737214,-0.37655 -1.628287,-0.47069 -2.344931,-0.8811 -4.002869,-1.68267 -7.858657,-3.64939 -10.856495,-6.63837 -0.821146,0.24999 -1.269286,0.69994 -1.668302,1.49674 -0.73611,1.46993 -0.501603,2.17783 1.365788,4.12698 1.239892,1.29422 3.701418,3.22132 5.470313,4.28335 4.194713,2.51847 4.298077,4.13902 0.220173,3.44297 -4.429962,-0.75614 -8.821077,0.20196 -9.471016,2.06512 -0.39036,1.11904 0.210237,2.27091 2.099697,4.02927 1.455483,1.35449 2.645656,2.69201 2.645656,2.97229 0,0.0546 0.07317,0.1253 0.179002,0.20358 2.062758,0.0625 4.385326,0.47824 6.938133,1.36318 2.318172,0.80361 4.578656,1.69132 7.025844,2.14167 0.725129,0.13345 1.475615,0.10059 2.214259,0.13844 1.874442,0.096 3.740326,0.0568 5.608145,-0.01 0.176338,-0.19627 0.349248,-0.39264 0.508366,-0.59608 0.52488,-0.14201 0.918961,-0.2623 1.292398,-0.37785 0.248456,-0.21048 0.499195,-0.42212 0.73033,-0.63842 0.439064,-0.41093 2.553981,-0.37783 -0.73033,0.63842 -0.354978,0.30072 -0.694888,0.60852 -0.993464,0.94299 0.73122,-0.0296 1.461635,-0.0526 2.19457,-0.0847 5.450189,-0.30688 6.88351,-0.66899 2.527514,6.34196 -0.0079,0.0995 -0.01794,0.19845 -0.02685,0.29804 1.537597,-1.38291 3.178723,-2.95992 4.768624,-4.41201 0.157446,-0.3527 0.313509,-0.70435 0.488676,-1.07491 0.144238,-0.30512 0.41807,-0.24194 0.72496,0.002 3.846052,-3.33822 6.925506,-4.96826 6.136202,1.53093 -0.213938,1.76158 0.02238,3.61913 -0.642618,5.28496 -0.896854,2.24663 -3.904034,4.85107 -6.504948,5.7133 -0.265653,0.0881 0.458464,-0.30178 0.68737,-0.45276 3.169332,-4.89103 4.45808,-4.41548 1.734533,-10.17906 -0.249074,-0.52708 -0.880423,-1.47895 -1.410539,-1.89737 -0.400509,0.34763 -0.799723,0.69524 -1.213636,1.07328 -6.629682,14.85146 2.056959,14.08723 -6.401125,14.54545 -0.08044,0.004 -0.145963,0.007 -0.225544,0.01 -0.143746,0.51731 -0.33847,1.16652 -0.603238,2.06839 -0.107761,0.36705 -0.266232,0.72449 -0.458246,1.06187 -0.130866,0.22994 -0.27829,0.45169 -0.420655,0.67589 -0.02248,0.29405 -0.0369,0.56352 -0.06444,0.86156 -0.02918,0.31585 -0.09767,0.62606 -0.170052,0.93646 9.998439,0.40124 12.734087,1.23721 12.7217,4.24916 1.384953,-1.2559 2.047219,-1.69632 6.01806,-4.35664 1.230296,-0.82426 2.467139,-1.64227 3.759051,-2.38434 0.218996,-0.1258 5.101933,-2.72744 6.295513,-3.13679 1.17152,-0.40179 2.39997,-0.65001 3.59974,-0.97555 3.70952,-1.34917 7.52892,-2.34942 11.46868,-2.96739 1.01793,-0.15968 2.04055,-0.34371 3.07347,-0.35016 1.25673,-0.007 2.50377,0.20369 3.75547,0.30618 18.19676,1.48991 -23.06937,15.24819 -4.82948,16.20667 1.06266,0.0559 2.14677,-0.0332 3.18803,0.16776 0.52306,0.10097 -1.0681,0.0667 -1.5967,0.14006 -3.8689,0.53671 -7.43865,1.86123 -11.159,2.90876 0.25133,-0.13896 1.02919,-0.51038 0.75359,-0.41693 -0.51364,0.17416 -0.9889,0.43071 -1.47497,0.66124 -2.89138,1.37128 -2.88095,1.42651 -5.07652,2.84198 1.00869,-0.12906 1.79354,-0.21754 3.05021,-0.38924 2.49032,-0.34027 4.46944,-0.15524 5.92676,0.55537 4.44726,2.16851 20.2956,0.55757 23.51018,-2.28175 0.10109,-0.84033 0.37587,-2.09432 0.86637,-3.92666 0.79104,-2.95509 1.43884,-6.3652 3.77874,-8.73118 2.26033,-2.28553 3.06198,-2.49385 5.4918,-3.74263 0.38976,-0.0482 0.60673,-0.0859 0.93617,-0.13029 0.0284,-0.0186 0.0481,-0.0335 0.077,-0.0521 0.78411,-0.50771 2.58867,-0.71634 3.16835,-0.671 0.52478,0.041 -0.0956,0.29864 -3.24532,0.72312 -14.64012,9.54938 26.47608,1.03885 12.85238,12.06664 -1.37058,1.10943 -2.818,2.194 -4.48223,2.9218 -0.0424,0.11777 -0.10561,0.16262 -0.20405,0.0896 -0.30689,0.12723 -0.61872,0.24687 -0.94156,0.3469 -0.18467,0.0572 -0.37762,0.12692 -0.56565,0.19544 -0.30867,0.21707 -0.52225,0.34028 -0.40991,0.14169 -0.69477,0.25002 -1.39765,0.46924 -2.09254,0.31922 -0.82574,-0.17828 1.24542,-0.43064 2.33777,-0.65798 0.31124,-0.35984 0.71379,-0.65517 1.11518,-0.95276 -4.77826,-5.40925 -9.68534,-3.17737 -13.28197,-0.47393 1.02672,0.27997 2.31614,0.8302 4.07231,1.63678 5.16948,2.37429 5.76433,2.47032 13.21753,2.11562 9.38106,-0.44647 12.29705,-1.58174 14.64419,-5.69701 2.59638,-4.55231 5.30083,-5.15204 9.50144,-2.1091 1.8318,1.32697 5.32192,3.31472 7.75438,4.41689 5.57825,2.52759 9.75384,6.7368 9.75384,9.83215 0,3.91594 1.8375,13.48905 3.29902,17.1855 1.91047,4.8319 16.56553,49.0573 14.46486,64.33294 -1.22945,8.94468 -1.42555,25.90163 -0.50195,43.59375 0.0673,1.28906 -0.3786,6.14062 -0.99219,10.78125 -0.61358,4.64062 -1.13063,13.28906 -1.14843,19.21875 -0.0178,5.92969 -0.67723,15.21094 -1.46485,20.625 -1.82439,12.54081 -3.20028,32.64969 -3.625,52.96875 -0.18323,8.76562 -0.79369,17.41161 -1.35742,19.21289 -1.28084,4.09256 -1.32506,9.08469 -0.0879,9.84961 1.62045,1.00149 1.02488,3.18105 -1.2832,4.69336 -1.8809,1.23241 -6.63865,1.46367 -31.03907,1.51367 -7.00985,0.0143 -12.53363,-0.0148 -16.92578,-0.084 -1.43675,0.27831 -3.01505,0.4403 -4.75586,0.44336 -3.71842,0.007 -7.37995,0.76098 -11.08203,0.95703 -7.19495,0.38102 -14.64596,0.54086 -22.05664,0.62109 -0.0384,2.70028 -0.0905,5.38442 -0.13867,8.32617 -0.32506,4.07234 -0.48244,6.13398 -0.60937,7.79102 0.50172,2.86068 1.18109,7.4626 1.6582,11.36328 0.56761,4.64062 2.06715,12.65625 3.33203,17.8125 1.26488,5.15625 3.33273,14.01562 4.59375,19.6875 1.26102,5.67187 3.11807,13.89844 4.12695,18.28125 1.00888,4.38281 2.7762,13.66406 3.92774,20.625 1.85843,11.2341 3.77019,17.4997 7.72265,25.30078 1.42036,2.80341 5.40682,3.84011 16.12305,4.19141 4.125,0.13523 11.71875,0.57372 16.875,0.97461 5.15625,0.40089 23.71875,1.02379 41.25,1.38476 17.53125,0.36097 34.82813,0.52341 38.4375,0.36133 24.60982,-1.10511 29.57107,-1.4993 33.75,-2.6875 2.57813,-0.73305 5.78649,-1.55113 7.12891,-1.81836 2.03567,-0.40522 2.75834,-1.46059 4.35351,-6.36133 1.93407,-5.94189 2.8931,-10.45626 4.9336,-23.2207 0.6182,-3.86719 1.97826,-9.77344 3.02343,-13.125 1.04518,-3.35157 2.07271,-7.57032 2.28321,-9.375 0.32558,-2.79135 1.96188,-9.58889 8.6875,-36.09375 0.52337,-2.0625 1.7667,-7.33594 2.76367,-11.71875 3.26923,-14.37208 4.63246,-19.15153 7.68164,-26.94141 0.21128,-0.53976 0.41715,-1.00324 0.62695,-1.50586 -4.95878,0.0649 -9.91852,0.0559 -14.87109,-0.16015 -5.50964,-0.24031 -9.53531,-1.14697 -14.32617,-2.23242 -0.5276,-0.0814 -1.00901,-0.14779 -1.61524,-0.25196 -3.41988,-0.58764 -17.92292,-1.02925 -33.86328,-1.03125 -20.85626,-0.003 -28.12087,-0.2931 -28.83398,-1.15234 -0.5764,-0.69451 -1.1348,-12.41384 -1.41211,-29.64063 -0.25223,-15.66989 -0.82869,-32.24102 -1.28125,-36.82617 -0.4861,-4.92436 -0.46808,-11.44771 0.041,-15.9375 0.47448,-4.18048 0.64577,-13.50781 0.38282,-20.72656 -1.33691,-36.69931 -17.05361,-161.28875 -15.71106,-163.86877 0.47208,-0.90719 2.39386,-2.70519 4.26922,-3.99508 1.87536,-1.28989 4.69711,-3.31264 6.27044,-4.49507 3.63535,-2.73203 5.80997,-2.7096 9.77175,0.0994 4.30671,3.05356 14.5358,6.53799 18.24929,6.21655 3.18107,-0.27535 3.48026,-1.18833 2.06926,-6.3159 -0.51292,-1.86392 -0.33639,-2.14981 1.32642,-2.14981 1.1211,0 3.21343,1.2649 5.03892,3.04394 4.84128,4.71811 7.80717,5.76151 14.58152,5.13512 0.96976,-0.0897 1.90184,-0.22039 2.8193,-0.37295 -0.21565,-0.2045 -0.39365,-0.37982 -1.17784,-1.14168 -8.58603,-8.34159 -4.90079,-16.37395 2.29839,-16.63664 3.27235,-0.11941 7.2706,1.36629 11.17333,5.15793 2.12553,2.06501 0.75919,0.72858 4.07768,4.02927 0.86827,1.05443 1.75882,2.09491 2.60448,3.16446 1.10208,1.39389 0.38206,0.88255 1.81508,2.28174 0.99222,0.96879 2.02707,1.90129 3.06989,2.82733 5.88804,2.40845 10.77742,2.3443 15.73253,-0.0554 4.28514,-2.0755 5.16032,-2.00751 10.14048,0.78339 1.1096,0.62182 2.13147,1.1333 3.07526,1.55209 0.11116,-0.61234 0.22175,-1.22473 0.33294,-1.83711 0.0354,-0.0804 0.0705,-0.14701 0.10561,-0.22639 -0.46266,-0.80979 -0.96616,-1.88196 -1.56985,-1.61236 -0.40048,0.17885 1.43022,1.12671 0.71064,1.02605 -2.47778,-0.3466 -4.74942,-0.90963 -7.0509,-1.51301 -1.94975,-0.10624 -4.10513,-0.57386 -6.43335,-1.53255 -0.70102,-0.28866 -6.33833,-2.80109 -6.15589,-3.17425 0.37311,-0.76312 0.6586,-1.38307 0.99168,-2.08141 -0.0683,-0.0953 -0.19642,-0.22134 -0.74644,-1.114 -0.0505,-0.082 0.0985,0.16699 0.16647,0.23779 0.0373,0.039 -0.051,-0.0926 -0.0734,-0.14006 -0.17244,-0.36372 -0.38369,-0.7143 -0.51195,-1.09283 -0.0272,-0.0803 0.13366,0.11625 0.20048,0.17427 -0.21113,-0.5887 0.0342,-0.0119 -0.83773,-0.97882 -0.7465,-0.82783 -1.45251,-1.88676 -1.58775,-2.95111 -0.21423,-2.24159 -0.0177,-5.76126 3.3742,-5.71818 0.71411,-0.005 1.4318,-0.031 2.14803,-0.0309 0.71622,4e-5 1.43196,0.025 2.14087,0.11889 -1.06591,-0.068 -0.77446,-0.088 0.43676,0.76383 1.0556,-2.73165 1.29354,-3.66994 1.58059,-3.64166 0.37646,0.0371 0.87553,1.65706 3.5532,2.78825 1.1222,0.47408 2.27357,0.8903 3.41,1.3355 1.5672,0.41388 5.36358,1.48769 7.43396,1.86154 1.3802,0.24922 2.82996,0.23345 4.16181,0.64658 4.38789,1.36109 6.83418,3.29193 9.50502,6.16932 1.04053,-0.24752 1.92211,-0.36499 2.64745,-0.35505 4.48769,0.0615 3.36737,4.62537 1.68262,9.14485 1.83607,0.10878 3.45855,0.10587 4.19582,-0.0619 3.11653,-0.71168 3.80474,-3.32152 1.55016,-5.8729 -3.99615,-4.5222 -4.15945,-7.91849 -0.38127,-7.91849 1.96536,0 6.32984,-3.08855 6.30088,-4.45924 -0.0324,-1.53035 -1.51647,-2.46894 -4.28353,-2.70843 -0.64307,-0.0557 -1.18106,-0.14457 -1.6325,-0.26385 -0.23288,-0.004 -0.46476,-0.0165 -0.69632,-0.0407 -4.2911,-0.44815 -8.67649,-1.36605 -11.63516,-4.54556 -0.50946,-0.54749 -1.36023,-1.72903 -1.91174,-2.6498 -10.38749,-12.36875 28.28594,5.51932 16.76357,-7.19375 -0.0246,-0.0271 -0.0488,-0.0543 -0.0734,-0.0814 0.85395,1.22407 1.69768,2.73473 1.0418,2.07979 -1.29167,-1.28983 -2.14752,-2.88795 -3.1773,-4.36315 -0.33693,0.002 -0.67311,-0.004 -1.00778,-0.0375 -0.43701,-0.0449 -1.32853,-1.15485 -1.5072,-1.67099 -0.87407,-0.16318 -1.69007,-0.49955 -2.14803,-1.00161 -1.1015,-1.20757 -0.70934,-2.19965 1.86521,-4.72471 5.60914,-5.50136 6.69648,-7.26266 6.69648,-10.85168 0,-3.05236 -0.25825,-3.61072 -1.6683,-3.61072 -0.91725,0 -1.90609,0.35179 -2.19815,0.78175 -0.35813,0.52723 -0.91369,0.75577 -1.5072,0.74592 4.18693,6.27925 -2.34144,13.78652 -15.06127,10.10576 -2.21562,-0.64115 -4.4203,-1.31831 -6.64814,-1.92343 -1.55713,-0.42294 -3.13516,-0.7748 -4.70418,-1.15959 -0.75166,-0.18433 -3.0118,-0.37303 -2.25722,-0.54723 1.23057,-0.28408 3.20053,1.2078 3.802,0.19055 1.58934,-2.688 2.48347,-5.0308 3.00008,-7.04065 -3.08355,-0.15644 -6.77608,-0.6541 -9.56051,-0.67263 -0.68726,6.31425 2.47887,8.59743 -0.96662,6.08138 -0.24729,-0.25312 -0.49378,-0.50586 -0.74107,-0.75896 -4.28319,-4.38407 -2.22257,-5.34857 1.70769,-5.32242 0.2577,-2.36772 1.04041,-5.28489 2.941,-8.75398 0.25498,-0.46535 0.749,-0.5936 1.3461,-0.56514 0.99519,0.0474 2.27768,0.53048 3.22563,0.61563 0.80931,0.0727 1.57272,0.37909 2.35746,0.57328 7.3872,1.82809 4.14088,0.98074 12.33326,3.35339 2.78415,0.80633 4.96759,1.89259 6.61056,3.12537 -0.0822,-1.80518 0.92293,-4.30126 2.03526,-4.30126 0.35456,0 1.48281,-1.57357 2.50603,-3.49671 2.9371,-5.52024 0.75459,-8.66037 -4.21551,-6.06509 -1.39465,0.72822 -2.79703,1.08703 -3.11464,0.79805 -0.71984,-0.65493 1.30275,-8.40868 2.60807,-9.99827 3.1172,-3.79608 3.67458,-7.51629 1.65577,-11.0683 -1.16478,-2.04934 -1.71406,-2.32715 -3.83423,-1.94134 -2.95527,0.53776 -3.36382,0.0624 -3.54425,-4.127 -0.10007,-2.32371 0.37088,-3.69702 1.70947,-4.99343 1.01553,-0.98353 2.0904,-2.9023 2.38968,-4.2638 0.65817,-2.99417 -0.25929,-8.00318 -1.46603,-8.00318 -0.47886,0 -2.36555,1.09279 -4.19223,2.42832 -4.33976,3.17312 -5.34182,2.6651 -5.01206,-3.46577 -0.57508,0.45027 -1.15356,0.89668 -1.75602,1.31594 -1.62071,1.12791 -1.11334,0.2677 -1.45887,0.90391 -1.27077,0.84108 -2.54026,1.77756 -4.05798,2.24753 -1.28365,0.39749 -2.65029,0.52117 -3.97564,0.78175 -14.32022,2.81555 5.34867,-12.35566 4.58603,-16.32883 h -3.37598 l 0.0304,-0.79803 c -0.52764,0.0788 -1.10202,0.18281 -1.77749,0.34202 -1.02865,0.24242 -2.0771,0.42746 -3.08779,0.72474 -0.22053,0.15202 -0.43966,0.30521 -0.67843,0.43159 -0.19788,0.10479 0.31468,-0.3275 0.53164,-0.39413 0.0481,-0.0147 0.0985,-0.0233 0.14679,-0.0375 0.0885,-0.061 0.17631,-0.12231 0.26671,-0.18078 0.71463,-0.47772 1.4173,-0.97133 2.14445,-1.4332 0.18116,-0.11508 0.69489,-0.46711 0.57818,-0.29642 -0.0794,0.11609 -0.22294,0.27563 -0.38307,0.44136 0.46731,-0.46272 0.9306,-0.9281 1.42844,-1.36317 0.27825,-0.24316 0.56827,-0.49995 0.92186,-0.63843 l 0.0573,-1.48859 c 0.006,-0.15857 0.0281,-0.39747 0.0358,-0.56677 -3.95378,-0.64196 -2.94962,-1.55498 0.13067,-2.11724 0.14786,-2.26461 0.34281,-4.70291 0.55312,-6.42665 0.49613,-4.06604 0.39013,-4.46517 -1.32641,-4.96086 -1.30614,-0.37718 -2.45086,-0.0387 -3.81275,1.1254 -1.67901,1.43514 -2.08755,1.50717 -2.98397,0.52442 -0.80169,-0.8789 -0.81147,-1.9082 -0.043,-4.5081 0.20207,-0.68275 0.34709,-1.20566 0.4475,-1.66122 -1.21632,1.25384 -2.7619,2.47874 -4.67554,3.61723 -1.44529,0.85986 -1.5135,0.88006 -1.53584,0.89087 -0.22684,0.23385 -0.60409,0.44497 -0.8073,0.6824 -0.0457,0.0472 -0.0362,0.0375 -0.0787,0.0814 0.0993,0.0333 -0.35251,0.55633 -0.54059,0.74103 -1.06363,1.04461 -1.95148,2.33761 -3.33124,3.00975 -1.73887,0.84708 -3.81069,0.93163 -5.71553,1.39738 -16.09827,3.93617 12.1863,-17.30539 3.99711,-17.37768 -4.27225,5.42672 -9.41672,10.22518 -14.11971,15.33699 -2.9104,3.16339 -2.42793,2.55789 -3.89866,4.57649 -10.09487,13.8553 -25.71537,4.01873 -15.17403,-9.55853 3.50508,-4.51456 7.56448,-8.61808 11.55997,-12.77023 -0.42002,0.21087 -0.86949,0.41197 -1.38011,0.59934 -1.31432,0.48228 -2.78574,0.48187 -4.17792,0.72312 -11.65285,2.01934 -0.73031,-7.3042 3.50845,-13.021041 -0.77906,-0.377299 -1.5635,-0.7462 -2.34314,-1.122139 -0.17235,-0.15929 -0.35272,-0.312036 -0.52985,-0.467422 -0.45628,-0.146741 -0.92401,-0.307854 -1.41948,-0.498366 -0.0809,-0.03113 -0.1536,-0.0764 -0.23271,-0.110749 -1.46268,1.336435 -1.93493,1.819757 -3.55141,2.936453 -0.12706,0.19096 -0.007,0.0093 -0.17184,0.257327 -1.04894,0.928476 -1.99256,1.966511 -3.14686,2.784987 -0.81004,0.57438 -1.7959,0.90639 -2.69578,1.35666 -0.90574,0.45321 -1.09062,0.52876 -1.42128,0.64332 -0.27677,0.29593 -0.5772,0.56893 -0.92723,0.79478 -3.17632,2.04952 -4.5402,1.75047 -7.68099,1.74265 -1.03257,-0.29436 -2.18844,0.0382 -3.22384,-0.12703 -3.93618,-0.62828 -2.86813,-0.32001 -5.0765,-1.08468 -2.40814,-1.26041 -2.42599,-1.20057 -2.89984,-1.6091 -0.98367,-0.43811 -1.90679,-0.98879 -2.86583,-1.4723 -2.30567,-1.992976 -1.34988,-1.009821 -2.96249,-2.874566 -6.53719,-7.55926 3.6197,-5.546593 10.96926,-4.877801 -0.15609,-0.958117 0.91914,-1.648764 1.75423,-2.413657 0.50465,-0.632534 0.92813,-1.15631 0.6641,-0.744292 -0.16776,0.261792 -0.40513,0.50712 -0.6641,0.744292 -0.33497,0.419892 -0.71248,0.896566 -0.92365,1.148198 0.23749,-0.185083 0.47494,-0.370286 0.71243,-0.55537 0.29586,-0.489823 0.60179,-0.935221 0.90754,-1.159597 0.90001,-0.660466 1.57294,-1.032091 2.19815,-1.260574 0.002,-0.0012 0.004,-0.002 0.005,-0.0033 -0.10007,-0.107948 -0.20223,-0.216037 -0.31147,-0.328987 -0.42514,-0.06064 -1.00953,-0.152424 -1.86878,-0.296414 -0.35729,-0.05987 0.72684,-0.0167 1.09012,-0.01466 0.1803,9.77e-4 0.32793,0.0072 0.49584,0.0098 -0.0106,-0.01062 -0.0181,-0.01866 -0.0286,-0.02932 -0.60362,-0.600898 -0.30631,-0.357178 -1.04358,-0.832237 -0.62456,-0.168015 -1.46936,-0.416987 -3.00545,-0.985333 -0.28885,-0.106872 0.6282,0.04631 0.92186,0.141692 0.70507,0.229025 1.37024,0.550289 2.05495,0.825725 0.0189,0.01224 0.011,0.0066 0.0286,0.01791 1.01015,0.271745 1.3708,0.345956 2.12476,0.884355 0.0947,0.0036 0.20356,0.01201 0.29893,0.01628 0.2391,-0.186347 0.47869,-0.372278 0.71779,-0.558626 -0.3479,0.151277 -1.39274,0.606677 -1.04536,0.454392 0.5978,-0.262059 1.18832,-0.539606 1.79539,-0.78338 0.13108,-0.05264 -0.49179,0.266294 -0.36338,0.208467 0.35011,-0.157645 0.68687,-0.341911 1.03285,-0.506509 3.17529,-3.370533 2.36456,-1.638006 5.22507,-4.477154 1.35091,-1.340813 2.71651,-2.378603 4.06157,-3.162834 -0.62907,-2.170538 -2.45867,-3.441512 -5.73345,-4.03742 -1.08426,-0.197303 -2.59118,-0.920355 -4.0365,-1.87946 -0.2503,0.265679 -0.33671,0.381491 -0.2506,0.330615 -0.74817,0.556205 -1.47408,1.143809 -2.21247,1.713339 -0.0359,0.05273 -0.072,0.120991 -0.10025,0.151465 -2.70353,2.923595 -2.55556,3.070542 -3.8038,3.703545 -0.0483,0.04575 -0.0858,0.07677 -0.13424,0.122149 -0.003,0.0036 -0.008,0.01127 -0.0107,0.01466 -3.13214,2.883367 -2.89076,2.938372 -3.59437,3.045572 -0.0595,0.06816 -0.11811,0.136812 -0.17721,0.20521 -0.36856,0.371898 -0.67823,0.80081 -1.10624,1.115624 -3.07319,2.260435 -3.99027,2.786567 -8.30928,2.982054 -1.04841,0.04746 -2.06715,-0.341757 -3.09496,-0.535824 -0.19225,-0.0363 -0.75524,-0.194632 -0.56385,-0.154723 0.25076,0.05229 0.49537,0.128289 0.74286,0.192181 1.11383,0.129357 0.51179,0.103744 1.80613,0.03583 6.85892,-0.359954 5.59488,-2.57643 2.31271,-5.284964 l -2.23753,0.882728 c -2.38072,-1.105494 -4.90765,-1.983175 -7.14219,-3.317556 -0.4367,-0.260769 -0.70005,-0.687735 -0.94335,-1.125397 -0.18197,-0.09012 -0.35515,-0.192786 -0.53343,-0.28827 -0.43802,0.416031 -0.88591,0.830221 -1.37473,1.19217 -1.58066,1.795035 -3.73653,3.529196 -5.15348,4.669335 -0.0501,0.05739 -0.15766,0.131634 -0.23449,0.197066 -0.52425,0.644061 -1.6433,1.360689 -3.59437,2.182389 -2.20117,0.927024 2.32971,-1.105326 3.59437,-2.182389 0.89506,-1.099635 0.002,-1.979283 -1.76855,-2.762187 -0.64217,-0.0053 -1.27168,-0.08947 -1.87415,-0.294785 -0.68624,-0.233867 -1.29668,-0.578738 -1.86162,-0.990218 -2.80875,-0.820191 -6.01779,-1.614484 -8.24306,-2.568379 -0.42313,0.46088 -0.88876,0.88647 -1.42845,1.249173 -1.75704,1.180859 -4.36503,-0.150142 -6.5479,-0.224753 -18.25741,-0.624036 24.95911,-15.527966 6.68932,-15.64968 -11.02045,-0.07342 -2.72093,-1.580916 -12.01644,8.7833 -0.48361,0.539213 -0.16505,-1.399061 -0.0554,-2.087928 0.1279,-0.808516 0.24306,-1.378475 0.36696,-1.861544 -0.48277,0.288511 -0.98745,0.547122 -1.4893,0.809438 0.15015,15.741306 -17.64417,16.19332 -18.45157,-0.112377 -0.10896,-2.200466 -0.11368,-3.905224 0.91649,-6.138375 0.0337,-0.07308 0.16501,-0.257342 0.30073,-0.444621 0.13521,-0.351173 0.27782,-0.69938 0.43676,-1.042334 0.22154,-0.478038 0.60056,-0.883851 0.94155,-1.299662 0.0146,-0.0177 0.0285,-0.03601 0.043,-0.05375 -0.8115,-0.532134 -1.81268,-0.76686 -2.80675,-0.690546 z m 80.5475,30.869398 c -1.03512,0.806715 -2.07058,1.613456 -3.10569,2.420171 -0.42569,0.704731 -0.81653,1.474877 -1.10266,1.856659 4.87286,0.410577 8.27085,0.09885 4.21372,-4.278459 -0.002,6.49e-4 -0.004,9.77e-4 -0.005,0.0017 z m 97.45963,147.25097 c -0.32235,-0.46208 -0.6425,-0.88593 -0.88964,-1.13354 -0.42663,-0.42746 -0.71154,-0.68462 -1.05432,-1.01139 0.64814,0.71511 1.29583,1.4298 1.94396,2.14493 z m -1.94396,-2.14493 c -0.0418,-0.0461 -0.0835,-0.0923 -0.1253,-0.13844 -0.006,7e-5 -0.0131,-6e-5 -0.0197,0 0.0455,0.0431 0.098,0.0936 0.14499,0.13844 z m -0.1253,-0.13844 c 0.56429,-0.006 1.13122,-0.0375 1.69515,-0.0375 2.3576,0 4.40495,0.28331 6.1541,0.77035 -0.16498,-0.64255 -0.4692,-1.27284 -0.92365,-1.90389 -1.43901,-1.99822 -5.06826,-2.70188 -6.1004,-1.1824 -0.40687,0.59898 -1.54076,0.82723 -2.7101,0.73778 0.39605,0.28991 0.95128,0.75583 1.72737,1.4837 -0.0383,-0.054 -0.0721,-0.1109 -0.11098,-0.16449 0.0895,0.0988 0.17896,0.19761 0.26851,0.29641 z M 83.202929,199.29967 c 0.478298,0.49102 0.995322,1.00442 1.53942,1.52442 2.436815,-2.58642 6.557729,-8.19894 9.846921,-11.73115 -2.736075,-0.8326 -5.458819,-1.91583 -7.691732,-0.6482 -3.264425,1.85322 -2.286307,6.68486 -3.429686,10.02758 -0.105886,0.30956 -0.181024,0.56006 -0.264923,0.82735 z m 23.334751,-94.08863 c -0.10374,0.51622 -0.0964,0.61142 0.45287,1.01302 -0.34344,-0.72099 -0.62852,-1.44357 -0.45287,-1.01302 z m 26.052,-14.416791 c 0.0278,-0.150569 0.0753,-0.359295 0.13605,-0.5912 -0.093,0.191876 -0.1747,0.413767 -0.24881,0.732892 -0.0233,0.100366 -0.0611,0.296474 -0.0877,0.454393 0.0129,0.03388 0.0125,0.03055 0.0251,0.06351 0.064,-0.218543 0.123,-0.438593 0.17542,-0.659602 z m 0.13605,-0.5912 c 0.004,-0.0069 0.007,-0.01271 0.0107,-0.01954 0.0227,-0.09662 0.0439,-0.193614 0.068,-0.289898 -0.0356,0.137678 -0.0513,0.204664 -0.0787,0.309441 z M 235.60735,65.162584 c -0.77504,1.101882 -1.74062,2.220507 -2.97323,3.341986 -0.6152,0.559731 -1.23032,1.121033 -1.84551,1.680765 -0.34799,0.316613 -0.6956,0.632888 -1.04359,0.949501 -0.066,0.197882 -0.12621,0.397516 -0.19511,0.594458 -1.43857,1.079203 -2.21866,1.738149 -2.84256,2.249162 0.0247,0.15227 0.0466,0.314601 0.0752,0.452765 3.78552,-1.389987 7.33009,-3.349891 10.25326,-4.770311 -0.23909,-0.882131 -0.53021,-1.934238 -1.03284,-3.304527 -0.15977,-0.435563 -0.28926,-0.830825 -0.3956,-1.193799 z m -26.97029,0.832239 c -0.0328,0.04454 -0.0447,0.06354 -0.077,0.107491 2e-4,0.01564 0.002,0.04268 0.002,0.06026 z m -0.17184,0.237783 c -7.91469,10.788895 -1.36171,3.465248 -0.90218,2.574892 0.16666,-0.322899 0.30206,-0.6313 0.41708,-0.923443 -0.0895,0.05017 -0.17497,0.105951 -0.26313,0.157979 l -0.14857,0.330616 c 0.1293,0.09951 -0.1227,0.308746 -0.20407,0.452764 l 0.20407,-0.452764 c -0.003,-0.0019 4.2e-4,-0.0048 -0.004,-0.0065 -0.10599,-0.07017 -0.4986,0.07504 -0.39381,0.0033 0.1743,-0.119171 0.36313,-0.219451 0.54596,-0.327358 l 0.69632,-1.550473 c 0.0232,-0.102312 0.036,-0.17586 0.0519,-0.258955 z m 22.84966,0.522796 c -0.013,0.0024 -0.0305,0.0281 -0.0537,0.08144 -0.39282,0.903657 -0.70829,1.832679 -1.01136,2.765444 0.30143,-0.455374 0.59287,-0.914981 0.83236,-1.399008 0.18113,-0.36607 0.32394,-1.464784 0.23271,-1.447868 z m -3.11107,1.98858 c -0.0238,-0.0015 -0.0548,0.01819 -0.0949,0.06514 -0.62071,0.72725 -1.13331,1.540241 -1.61818,2.372941 0.0143,0.455025 0.0239,0.936849 0.0519,1.322462 0.36231,-0.321057 0.74056,-0.624169 1.16351,-0.874584 0.12392,-0.353786 0.24156,-0.790111 0.3759,-1.394123 0.0907,-0.407993 0.28851,-1.481384 0.12173,-1.491841 z m 22.40573,1.737767 c -0.01,0.0039 -0.0204,0.0075 -0.0304,0.0114 -0.0119,0.08339 -0.0278,0.163183 -0.0358,0.250811 0.005,0.0035 0.0105,0.0063 0.0161,0.0098 0.0697,-0.106617 0.10355,-0.157478 0.14499,-0.219868 -0.0323,-0.01841 -0.0629,-0.03392 -0.0949,-0.05212 z m -81.05049,2.988569 c 0.007,0.01027 0.0142,0.0207 0.0214,0.03094 0.021,0.02957 0.0964,0.111261 0.0734,0.08306 -0.0313,-0.03816 -0.0635,-0.07588 -0.0949,-0.114006 z m 57.27718,1.223115 c 0.32809,1.352655 0.89083,1.90116 1.81329,1.842001 -0.5856,-0.641858 -1.17822,-1.272565 -1.81329,-1.842001 z m 42.7243,1.314319 c -0.35909,0.25131 -0.72346,0.495089 -1.10624,0.713348 0.0181,-0.0035 0.0374,-0.0046 0.0555,-0.0082 0.37939,-0.217114 0.62971,-0.350508 0.80193,-0.434849 0.0386,-0.05318 0.15281,-0.168877 0.24882,-0.270356 z m -4.19404,3.778463 c -0.18607,0.09037 -0.25303,0.122449 -0.47972,0.234526 0.11933,-0.04154 0.23868,-0.08225 0.358,-0.123777 0.0422,-0.03481 0.0804,-0.07492 0.12172,-0.110749 z m -3.42431,2.763816 c -0.7113,0.16036 -1.84676,0.485211 -3.85929,1.260574 -0.85659,0.330018 1.88042,-0.213377 2.71547,-0.586313 0.40903,-0.182676 0.78102,-0.422297 1.14382,-0.674261 z M 129.92255,84.45718 c 0.1159,0.396953 0.22459,0.795517 0.34189,1.192169 0.22811,0.770696 0.3956,1.55615 0.65874,2.317567 0.13724,0.397335 0.37178,0.762032 0.5388,1.149825 0.23612,0.548269 0.45505,1.102172 0.67841,1.654707 -0.16729,-0.656814 -0.36425,-1.308249 -0.64083,-1.946235 -0.6444,-1.486463 -1.04069,-2.883328 -1.26555,-4.198655 -0.1034,-0.05596 -0.20894,-0.114615 -0.31146,-0.169378 z m 140.25732,3.304525 c -0.0833,-0.0096 -0.0561,0.07425 0.0787,0.249184 0.14894,0.0034 0.30945,0.005 0.45467,0.0098 -0.24383,-0.145167 -0.44129,-0.248312 -0.53342,-0.258956 z m 2.19994,0.630288 -0.0734,0.08631 c -0.17927,0.455604 -0.11549,0.283976 0.0734,-0.08631 z m -13.44666,12.216487 c -0.0423,-0.002 0.6497,0.68214 0.97198,0.84201 0.0281,0.0139 0.0593,0.0224 0.0877,0.0358 -0.27015,-0.23128 -0.48274,-0.41947 -0.99346,-0.83224 -0.0392,-0.0317 -0.0602,-0.0454 -0.0663,-0.0456 z m -2.04421,14.7181 c 4.39508,0.004 8.88614,4.15919 9.51577,12.45101 0.1414,1.86214 -0.11569,3.73486 0,5.59767 0.003,0.0496 0.13441,0.0809 0.15752,0.0359 0.0127,-0.0246 0.009,-0.0865 0.005,-0.15635 0.19996,1.01961 0.4029,2.03934 0.60503,3.05861 -0.74,5.25804 0.49629,-0.54807 -1.68262,-3.84362 -0.93438,-1.41321 -2.91315,-1.96428 -4.36945,-2.94623 -14.67882,-9.89752 9.54635,25.45139 -5.50433,16.02754 -1.66137,-1.04026 -3.87646,-1.58774 -4.98521,-3.12049 -0.72369,-1.00047 -1.08631,-2.15809 -1.34968,-3.35177 -0.0821,-0.207 -0.19005,-0.51698 -0.24344,-0.671 -1.23685,-3.56815 -1.19963,-6.93127 -1.09012,-10.63019 0.24581,-8.30857 4.54607,-12.4552 8.94116,-12.45101 z m -8.1643,20.94278 c -0.004,0.0243 -0.004,0.019 -0.007,0.044 0.0239,0.1056 0.0516,0.21056 0.077,0.31594 -0.0238,-0.11982 -0.0444,-0.24103 -0.0698,-0.35992 z m 90.6325,1.60096 c -0.086,0.0966 -0.20778,0.21851 -0.25956,0.2899 0.007,-0.007 0.22759,-0.22675 0.25776,-0.25732 z m 10.10468,11.1025 c -2.07216,0.31974 -4.07698,0.74454 -5.6171,1.95275 -1.3787,1.08151 2.43905,-0.52278 5.59383,-1.57328 0.008,-0.13063 0.0156,-0.25281 0.0233,-0.37947 z M 66.389234,195.14174 c -0.758981,0.21021 -1.845095,0.73431 -4.115265,1.60096 2.249819,-0.84939 3.417357,-1.36502 4.115265,-1.60096 z m -4.849175,4.51135 c 0.358706,0.80124 0.699533,1.56443 1.530471,2.1091 0.130461,0.0855 0.330337,-0.0884 0.481516,-0.0391 0.407338,0.13424 0.754218,0.38647 1.136666,0.57166 1.435872,0.69526 1.074342,0.53129 2.334191,1.01627 0.29114,0.0879 0.572903,0.19012 0.85563,0.29153 -2.338364,-1.58674 -4.614218,-3.10426 -6.338474,-3.94947 z m 4.838435,4.46087 c -0.548087,-0.0666 -1.193739,0.91062 -1.981557,3.40714 -0.120048,0.38041 -0.233983,0.69978 -0.350844,1.04884 2.639223,0.76823 3.815341,1.48465 4.410619,2.03582 -0.57027,-3.53973 -1.196255,-6.38464 -2.078218,-6.4918 z m 132.366896,32.72769 c 0.48968,0.0283 0.99959,0.16283 1.57164,0.46416 1.27904,0.67369 1.4632,2.34793 1.80434,3.46088 -0.0575,1.44451 -0.11931,2.86719 0.1808,4.29637 0.0322,1.45318 0.0759,1.96166 -0.0483,3.13515 0.0103,0.23109 -0.0127,0.44647 -0.0716,0.64169 -0.002,0.0142 -0.002,0.0214 -0.004,0.0359 -0.18281,1.38667 -0.51212,2.75388 -0.76255,4.13025 0.54113,0.3021 1.08397,0.60109 1.61997,0.90879 0.84732,0.44249 3.17479,1.36218 2.19815,2.86316 -0.0299,0.0459 -0.0778,0.0958 -0.11456,0.14333 -0.003,0.0319 -0.005,0.0767 -0.006,0.1026 -0.0221,0.54363 -0.16731,1.07691 -0.2506,1.61561 -0.46731,0.49015 -0.79303,1.13238 -1.4016,1.47068 -1.75735,0.97683 -4.738,0.21638 -5.84442,-1.28664 -0.42878,-0.58249 -0.48958,-1.32857 -0.73391,-1.99347 -0.0651,-0.58757 -0.0652,-1.16983 -0.0394,-1.74917 -2.12392,-1.12071 -4.29761,-2.16712 -6.55686,-3.02765 -1.2055,-0.45917 -2.4455,-0.84024 -3.67134,-1.25243 -1.13243,-0.38078 -2.27003,-0.75161 -3.40462,-1.12703 -4.00636,-1.32564 -2.49388,-4.99313 1.51257,-3.66771 v -0.002 c 1.12112,0.37089 2.24449,0.73774 3.36345,1.114 1.2393,0.4167 2.49196,0.8013 3.71072,1.26545 1.93852,0.73826 3.82046,1.59332 5.66184,2.51463 0.16125,-0.80147 0.31133,-1.60401 0.42604,-2.41039 -0.15156,-0.18928 -0.30216,-0.37977 -0.45468,-0.56841 -0.26178,-0.32379 -0.66221,-0.58361 -0.7876,-0.96905 -0.0434,-0.13338 0.35459,0.0499 0.45466,-0.0554 0.16612,-0.17461 0.20086,-0.21889 0.34906,-0.37459 -2.49536,0.81647 -2.33584,-0.0948 -1.49109,-1.1824 -0.24127,-0.1783 -0.48654,-0.35346 -0.70348,-0.55536 -0.57333,-0.53359 -0.67642,-1.42036 -1.44992,-1.80781 -0.0152,-0.75872 -0.0482,-1.518 -0.0447,-2.27685 5.7e-4,-0.12371 0.18525,-0.19129 0.22555,-0.30945 0.27875,-0.81694 0.23554,-1.44199 0.90575,-2.10584 0.3942,-0.39045 0.9116,-0.66012 1.36758,-0.99021 0.90973,-0.25196 1.672,-0.49834 2.48813,-0.45113 z m -1.42486,2.9625 c -0.0281,-7.7e-4 0.0499,0.34734 0.14499,0.43811 0.0214,0.0205 0.0481,0.0355 0.0716,0.0538 -0.0264,-0.10151 -0.077,-0.24376 -0.19691,-0.46742 -0.008,-0.0161 -0.0157,-0.0243 -0.0197,-0.0244 z m -0.61398,4.70517 c -0.30764,0.0645 -0.62898,0.13085 -0.9863,0.19707 0.034,0.12062 0.11603,0.32577 0.26851,0.59119 0.20987,-0.26602 0.46022,-0.52788 0.71779,-0.78826 z m -0.65694,0.89738 c 0.0211,0.0334 0.0244,0.0545 0.0483,0.0896 0.0322,0.0471 0.20939,0.11089 0.16468,0.0732 -0.068,-0.0573 -0.1417,-0.10884 -0.21302,-0.16287 z m 7.40892,8.80284 c -0.46125,-0.0617 -1.90533,0.9836 -2.35747,1.70683 -5e-5,0.0337 -0.004,0.0671 -0.004,0.10097 -0.0458,0.0573 -0.0832,0.12329 -0.12887,0.18079 -0.0215,0.0892 -0.0286,0.17886 -0.0179,0.26872 0.0401,0.006 0.0838,0.006 0.11994,0.0179 0.21365,0.0709 0.18047,0.1547 0.0931,0.26058 0.88235,-0.73807 2.18596,-1.22866 2.4219,-2.26219 0.0398,-0.17407 -0.0127,-0.25832 -0.12709,-0.27362 z M 73.5547,255.99129 c -0.01739,0.36462 -0.0536,1.03129 -0.102032,1.78825 0.0286,-0.0746 0.05873,-0.14868 0.08771,-0.22312 0.03268,-1.98331 0.04473,-2.2027 0.01432,-1.56513 z m 249.77635,0.78826 c -0.45234,0.004 -0.90412,0.007 -1.35684,0.0115 -0.0205,0.13985 -0.0488,0.27956 -0.0555,0.42018 -0.0212,0.44053 0.0162,0.58992 0.0734,0.99674 0.0214,0.1408 -0.0685,0.34706 0.0644,0.42182 0.12335,0.0693 -0.13916,-0.46828 -0.0179,-0.39576 0.223,0.13344 0.25913,0.4261 0.40634,0.62866 0.60571,0.8335 -0.0321,-0.18983 0.74107,0.75243 0.0352,0.0429 0.0614,0.0913 0.0949,0.13518 0.21948,-0.49285 0.47018,-1.03816 0.6641,-1.48533 -0.21282,-0.49315 -0.43585,-0.98352 -0.61398,-1.48533 z m -122.60769,0.70195 c -0.007,0.0476 -0.0198,0.0921 -0.0179,0.14495 0.35307,0.28376 0.10944,0.10401 0.0179,-0.14495 z m -128.097683,2.4218 c -0.0884,0.13796 -0.179894,0.27402 -0.264923,0.41368 -0.05278,0.0867 0.157398,-0.14379 0.196902,-0.23615 0.02497,-0.0583 0.04358,-0.11897 0.06802,-0.17753 z m 12.025381,3.9397 c 0.25774,0.36904 0.561208,0.80076 0.868161,1.228 0.0165,-0.0153 0.02673,-0.0241 0.04296,-0.0392 -0.05921,-0.26799 -0.138046,-0.51509 -0.273874,-0.68729 -0.163803,-0.20766 -0.425229,-0.33392 -0.637248,-0.50162 z m 71.352142,3.63678 c -0.2185,0.0295 -0.27952,0.49438 -0.30967,1.00486 0.0317,-0.0328 0.0718,-0.059 0.10203,-0.0928 0.21631,-0.2427 0.639,-0.74107 0.33473,-0.88599 -0.0479,-0.0228 -0.0893,-0.0312 -0.12709,-0.026 z m -90.405157,4.6449 c -0.111283,0.25252 -0.222965,0.46799 -0.334734,0.68729 0.08592,0.0123 0.16981,0.0256 0.257764,0.0375 0.0075,-0.003 0.03607,-0.0141 0.118141,-0.0456 -0.0063,-0.0821 0.01208,-0.17972 -0.0018,-0.25731 -0.02873,-0.22435 -0.02727,-0.28362 -0.03938,-0.42183 z m 0.252394,0.59445 c -6.41e-4,8.4e-4 -0.0013,0.003 -0.0018,0.004 h 0.0018 c -6.4e-5,-8.3e-4 6.4e-5,-0.003 0,-0.004 z m 239.401373,36.59085 c -0.40897,0.17788 -0.41276,0.18797 -0.69811,0.32247 -0.0248,0.0177 -0.0458,0.0304 -0.0698,0.0471 0.0357,-0.012 0.0574,-0.0164 0.0949,-0.0294 0.23998,-0.0823 0.90444,-0.44103 0.67306,-0.34038 z M 188.0332,389.25977 c -0.1793,0.14803 -0.2856,0.23414 -0.74414,0.62695 2.4e-4,0.054 -2.3e-4,0.10807 0,0.16211 0.26796,-0.21469 0.54374,-0.46883 0.76563,-0.6836 -0.007,-0.0338 -0.0149,-0.0716 -0.0215,-0.10546 z m -11.5625,25.88085 c -0.10548,0.0474 -0.26342,0.11048 -0.3457,0.1504 -0.18159,0.0881 -0.46134,0.29638 -0.72266,0.5039 0.12119,-0.0479 0.24201,-0.0969 0.36328,-0.14453 0.23306,-0.1728 0.47345,-0.33485 0.70508,-0.50977 z m 151.0918,17.04493 c 0.17632,0.44274 0.32634,0.78692 0.48047,1.14648 0.0939,-0.33828 0.17964,-0.73765 0.26758,-1.11719 -0.24926,-0.01 -0.49887,-0.0172 -0.74805,-0.0293 z"
     inkscape:connector-curvature="0"
     sodipodi:nodetypes="sccccccscscscccccccccccccccccccccccccccscccscccccscccccccsccccscccccccccccccscccccccccccscccccccccccccccsccccscccscccccccccsccscsccccccccccccccsccccccccccccccccsscccccccsccccccccccccccccccccccscccccccccccccccccccccsccccsssccscccsccccssscssssscccsccccccccccccccccsccscscccscsccccccccccsccscccccccccccccccccccccssccccccccccccccsscccsccccccccccccccsccccccccsscccccsccccccccccccccccccsccccccccccscscscccccccccccccsccccccccccccccccscccccccccccccccccccccccccccccccccccccccccsccccccssccccscccccccccccccccccccccccsccsccccccccscccccccccccccccccccccccccccccccccccccccccccccccccccccccccccccccccccccccccccccccccccscssccccscccccccccccccccccccccccccscccccccccccccccccccccccccccccccccsccccccccccccccccccccccccccccccccccccccsccccccccccccccccccccccccccccccccccccccccccccccccccccccccccccczczccccczcccccccccccccccccccccccccc" />
</svg>
