<?xml version="1.0" encoding="UTF-8" standalone="no"?>
<!-- Created with Inkscape (http://www.inkscape.org/) -->

<svg
   xmlns:dc="http://purl.org/dc/elements/1.1/"
   xmlns:cc="http://creativecommons.org/ns#"
   xmlns:rdf="http://www.w3.org/1999/02/22-rdf-syntax-ns#"
   xmlns:svg="http://www.w3.org/2000/svg"
   xmlns="http://www.w3.org/2000/svg"
   xmlns:sodipodi="http://sodipodi.sourceforge.net/DTD/sodipodi-0.dtd"
   xmlns:inkscape="http://www.inkscape.org/namespaces/inkscape"
   id="svg20085"
   version="1.1"
   inkscape:version="0.92.4 (5da689c313, 2019-01-14)"
   width="450"
   height="681.5625"
   viewBox="0 0 450 681.5625"
   sodipodi:docname="plant_alive.svg">
  <metadata
     id="metadata20091">
    <rdf:RDF>
      <cc:Work
         rdf:about="">
        <dc:format>image/svg+xml</dc:format>
        <dc:type
           rdf:resource="http://purl.org/dc/dcmitype/StillImage" />
        <dc:title></dc:title>
      </cc:Work>
    </rdf:RDF>
  </metadata>
  <defs
     id="defs20089" />
  <sodipodi:namedview
     pagecolor="#ffffff"
     bordercolor="#666666"
     borderopacity="1"
     objecttolerance="10"
     gridtolerance="10"
     guidetolerance="10"
     inkscape:pageopacity="0"
     inkscape:pageshadow="2"
     inkscape:window-width="1920"
     inkscape:window-height="986"
     id="namedview20087"
     showgrid="false"
     inkscape:zoom="1.4897651"
     inkscape:cx="238.48876"
     inkscape:cy="636.12982"
     inkscape:window-x="-11"
     inkscape:window-y="-11"
     inkscape:window-maximized="1"
     inkscape:current-layer="svg20085" />
  <path
     id="path20635"
     style="fill:#000000"
     d="m 218.85156,0 c -2.58136,0 -6.97659,4.7966062 -6.97656,7.6132812 0,3.6127818 -2.63217,4.7388828 -4.5,1.9257813 -1.58959,-2.3940537 -5.05679,-2.6600102 -7.16602,-0.5507813 -4.29992,4.2999168 -6.0376,7.6307108 -6.32031,12.1152348 -0.21323,3.38214 -0.68017,4.677734 -1.6875,4.677734 -0.76637,0 -1.52168,-0.84375 -1.67773,-1.875 -0.71929,-4.753601 -1.31207,-6.030909 -4.0293,-8.6875 -3.16992,-3.099194 -10.56417,-4.96121 -12.40234,-3.123047 -0.54692,0.546922 -1.29613,3.560188 -1.66602,6.697266 -0.36989,3.13708 -0.91494,5.946175 -1.21094,6.242187 -0.29602,0.296012 -1.99889,-0.574581 -3.7832,-1.935547 -4.57222,-3.487396 -7.80912,-3.291177 -9.43555,0.572266 -1.50828,3.582768 -6.83219,6.769969 -10.22656,6.121094 -3.79551,-0.725557 -4.8221,0.577114 -4.60156,5.841797 0.22981,5.486288 -1.17209,6.729785 -4.86133,4.3125 -5.18057,-3.394449 -7.44853,-0.669506 -6.57226,7.894531 0.67062,6.55469 -0.70824,7.911831 -5.28711,5.207031 -3.03958,-1.795525 -6.09701,-1.284898 -6.83985,1.140625 -0.26826,0.875969 -0.10136,3.265688 0.36914,5.310547 1.29188,5.614679 -1.70473,7.950043 -6.01562,4.689453 -1.00089,-0.75704 -2.51531,-1.376953 -3.36524,-1.376953 -1.61697,0 -3.73123,3.63526 -3.70703,6.373047 0.0166,1.883617 2.17011,8.310727 3.09375,9.234375 0.90246,0.902458 0.80189,4.807376 -0.13867,5.388672 -0.83064,0.513363 -7.26386,-3.51282 -7.80469,-4.884766 -0.17644,-0.447606 -1.63303,-1.068698 -3.236326,-1.380859 -3.855844,-0.750724 -5.525288,2.080909 -4.664062,7.908203 1.54666,10.465097 1.154878,11.150444 -4.820313,8.417969 -2.779254,-1.270962 -3.188168,-1.239301 -5,0.40039 -2.003102,1.812778 -2.051991,3.251944 -0.34375,10.162109 0.627722,2.53926 0.520708,2.67628 -1.675781,2.125 -4.036336,-1.01305 -5.345842,1.57193 -5.326172,10.52344 0.0094,4.29215 -0.178601,8.00086 -0.417968,8.24023 -0.239374,0.23937 -2.131088,-0.0739 -4.205079,-0.69531 -2.073992,-0.62135 -4.435901,-0.87415 -5.248047,-0.5625 -1.867733,0.71672 -1.90754,5.84864 -0.07031,9.0625 2.207976,3.86245 1.781285,6.44471 -1.171875,7.0918 -4.974112,1.08992 -5.150895,1.24265 -4.494141,3.85937 0.344468,1.37247 1.444073,3.5343 2.44336,4.80469 0.999286,1.27039 1.816406,3.53641 1.816406,5.03711 0,2.61222 -0.139825,2.70249 -3.291016,2.11133 -6.833204,-1.28192 -8.101907,3.64532 -2.314453,8.98828 2.699202,2.49188 3.59087,3.94387 3.140625,5.11719 -0.515837,1.34424 -1.460415,1.56001 -5.255859,1.19531 -3.358931,-0.32274 -4.759627,-0.0947 -5.115235,0.83203 -0.269359,0.70195 -1.07665,1.27539 -1.794921,1.27539 -2.915432,0 -0.446665,3.92426 6.958984,11.05859 l 6.126953,5.90235 -1.925781,1.92578 c -1.565236,1.56524 -2.287021,1.73288 -3.853516,0.89453 -1.060172,-0.5674 -3.785195,-1.03125 -6.05664,-1.03125 -3.383842,0 -4.305153,0.38526 -5.09961,2.12891 -0.803182,1.76279 -0.547307,2.61172 1.490235,4.94921 1.352867,1.55207 4.038679,3.86311 5.96875,5.13672 4.576921,3.02023 4.689703,4.96364 0.240234,4.12891 -4.833606,-0.90678 -9.624825,0.2422 -10.333984,2.47656 -0.425928,1.34199 0.229393,2.72335 2.291015,4.83203 1.588101,1.62434 2.886719,3.22834 2.886719,3.56446 0,0.33612 1.643201,1.10313 3.652344,1.70508 6.583252,1.97237 5.876638,6.92302 -0.859375,6.01953 -2.90986,-0.39029 -3.826117,-0.15847 -4.306641,1.09375 -0.905326,2.35925 1.414754,5.96241 5.6875,8.83203 2.08011,1.39701 3.921787,3.26917 4.09375,4.16211 0.185978,0.96571 -1.424638,3.31278 -3.976562,5.79297 -4.777256,4.64296 -4.900058,5.03187 -2.835938,9.02343 1.767103,3.41721 4.987103,4.88549 6.982422,3.18555 0.773437,-0.65894 2.780867,-1.49054 4.460938,-1.84766 1.68007,-0.3571 3.500652,-1.48327 4.046874,-2.5039 1.167812,-2.18207 4.920883,-2.04261 5.347657,0.19922 0.295073,1.55001 -3.326667,3.68359 -6.253907,3.68359 -0.92707,0 -2.381259,0.76867 -3.230468,1.70703 -2.455156,2.71292 -0.198401,4.56128 6.410156,5.25195 11.745667,1.22756 14.173543,0.90375 17.833984,-2.375 1.752085,-1.56939 2.20666,-1.59222 5.955078,-0.30078 2.231788,0.76892 4.713387,2.0552 5.515626,2.85742 1.471384,1.47139 3.309992,1.44823 14.150392,-0.17968 2.71723,-0.40806 4.87666,-0.18617 6.46679,0.66601 4.98638,2.67232 23.11435,0.55861 25.91602,-3.02148 3.00199,-3.83606 3.89988,-3.90684 10.07227,-0.79102 5.64051,2.84732 6.28956,2.96248 14.42187,2.53711 10.23584,-0.53541 13.41752,-1.89687 15.97852,-6.83203 2.83296,-5.45927 5.78383,-6.17848 10.36718,-2.5293 1.99871,1.59135 5.80684,3.97512 8.46094,5.29688 6.08652,3.03116 10.64258,8.07895 10.64258,11.79101 0,4.69611 2.00492,16.17648 3.59961,20.60938 2.08455,5.79457 2.05291,51.75561 -0.0469,67.03125 -1.22945,8.94468 -1.42555,25.90163 -0.50195,43.59375 0.0673,1.28906 -0.3786,6.14062 -0.99219,10.78125 -0.61358,4.64062 -1.13063,13.28906 -1.14843,19.21875 -0.0178,5.92969 -0.67723,15.21094 -1.46485,20.625 -1.82439,12.54081 -3.20028,32.64969 -3.625,52.96875 -0.18323,8.76562 -0.79369,17.41161 -1.35742,19.21289 -1.28084,4.09256 -1.32549,9.08469 -0.0879,9.84961 1.62045,1.00149 1.02488,3.18105 -1.2832,4.69336 -1.8809,1.23241 -6.63865,1.46367 -31.03907,1.51367 -7.00985,0.0143 -12.53363,-0.0148 -16.92578,-0.084 -1.43675,0.27831 -3.01505,0.4403 -4.75586,0.44336 -3.71842,0.007 -7.37995,0.76098 -11.08203,0.95703 -7.19495,0.38102 -14.64596,0.54086 -22.05664,0.62109 -0.0384,2.70028 -0.0905,5.38442 -0.13867,8.32617 -0.32506,4.07234 -0.48244,6.13398 -0.60937,7.79102 0.50173,2.86068 1.18109,7.4626 1.6582,11.36328 0.56761,4.64062 2.06715,12.65625 3.33203,17.8125 1.26488,5.15625 3.33273,14.01562 4.59375,19.6875 1.26102,5.67187 3.11807,13.89844 4.12695,18.28125 1.00888,4.38281 2.7762,13.66406 3.92774,20.625 1.85843,11.2341 3.77019,17.4997 7.72265,25.30078 1.42036,2.80341 5.40682,3.84011 16.12305,4.19141 4.125,0.13523 11.71875,0.57372 16.875,0.97461 5.15625,0.40089 23.71875,1.02379 41.25,1.38476 17.53125,0.36097 34.82813,0.52341 38.4375,0.36133 24.60982,-1.10511 29.57107,-1.4993 33.75,-2.6875 2.57813,-0.73305 5.78649,-1.55113 7.12891,-1.81836 2.03567,-0.40522 2.75834,-1.46059 4.35351,-6.36133 1.93407,-5.94189 2.8931,-10.45626 4.9336,-23.2207 0.6182,-3.86719 1.97826,-9.77344 3.02343,-13.125 1.04518,-3.35157 2.07271,-7.57032 2.28321,-9.375 0.32558,-2.79135 1.96188,-9.58889 8.6875,-36.09375 0.52337,-2.0625 1.7667,-7.33594 2.76367,-11.71875 3.26923,-14.37208 4.63246,-19.15153 7.68164,-26.94141 0.21128,-0.53976 0.41715,-1.00324 0.62695,-1.50586 -4.95878,0.0649 -9.91852,0.0559 -14.87109,-0.16015 -5.50964,-0.24031 -9.53531,-1.14697 -14.32617,-2.23242 -0.5276,-0.0814 -1.00901,-0.14779 -1.61524,-0.25196 -3.41988,-0.58764 -17.92292,-1.02925 -33.86328,-1.03125 -20.85626,-0.003 -28.12087,-0.2931 -28.83398,-1.15234 -0.5764,-0.69451 -1.1348,-12.41384 -1.41211,-29.64063 -0.25223,-15.66989 -0.82869,-32.24102 -1.28125,-36.82617 -0.4861,-4.92436 -0.46851,-11.44771 0.041,-15.9375 0.47448,-4.18048 0.64577,-13.50781 0.38282,-20.72656 -1.33691,-36.69931 -0.91606,-167.42745 0.54882,-170.52148 0.51509,-1.08793 2.61198,-3.24415 4.65821,-4.79102 2.04624,-1.54688 5.1251,-3.97262 6.84179,-5.39063 3.96659,-3.27634 6.33935,-3.24944 10.66211,0.11915 4.69913,3.66191 15.86026,7.84055 19.91211,7.45507 3.47092,-0.33021 3.79737,-1.4251 2.25781,-7.57422 -0.55966,-2.23527 -0.36705,-2.57812 1.44727,-2.57812 1.22326,0 3.50623,1.5169 5.49805,3.65039 5.28241,5.65811 8.51854,6.90937 15.91015,6.1582 5.92692,-0.60232 10.83483,-2.3439 16.10742,-5.71875 2.25034,-1.44038 2.55244,-1.38172 6.5625,1.26954 9.51342,6.28978 16.4947,7.34107 23.60743,3.55468 4.67559,-2.489 5.63052,-2.40746 11.06445,0.93946 7.16886,4.4155 11.25,4.56546 11.25,0.41601 0,-0.84821 0.73829,-2.18616 1.64062,-2.97461 1.37143,-1.19832 2.65757,-1.27644 7.83594,-0.47851 3.4072,0.52502 7.28142,0.68094 8.60938,0.34765 3.4005,-0.85347 4.15142,-3.98327 1.6914,-7.04297 -4.36026,-5.42316 -4.53844,-9.49609 -0.41601,-9.49609 2.14444,0 6.9066,-3.70388 6.875,-5.34766 -0.0353,-1.83525 -1.65465,-2.96082 -4.67383,-3.24804 -5.06315,-0.48167 -4.69919,-2.8417 1.33398,-8.63868 5.95011,-5.71709 7.32252,-9.45449 4.85352,-13.22265 -1.57013,-2.39633 -5.53006,-3.24018 -6.65625,-1.41797 -0.86793,1.40434 -4.76853,1.12907 -6.06055,-0.42773 -1.20187,-1.44815 -0.77397,-2.63789 2.03516,-5.66602 6.12023,-6.59739 7.30664,-8.7096 7.30664,-13.01367 0,-3.66048 -0.28178,-4.33008 -1.82031,-4.33008 -1.00082,0 -2.07976,0.42187 -2.39844,0.9375 -0.94718,1.53257 -3.14431,1.06809 -4.18945,-0.88477 -0.9914,-1.85246 0.38504,-6.61523 1.91211,-6.61523 0.38686,0 1.61792,-1.88708 2.73437,-4.19336 3.20472,-6.62005 0.82335,-10.38579 -4.59961,-7.27344 -1.52173,0.8733 -3.05189,1.30359 -3.39844,0.95703 -0.78543,-0.78541 1.42145,-10.08394 2.84571,-11.99023 3.40123,-4.55237 4.00939,-9.01377 1.80664,-13.27344 -1.27091,-2.45764 -1.87024,-2.7908 -4.1836,-2.32812 -3.22454,0.6449 -3.67031,0.0749 -3.86718,-4.94922 -0.10919,-2.78666 0.40467,-4.43359 1.86523,-5.98828 1.10806,-1.17948 2.28087,-3.48052 2.60742,-5.11328 0.71814,-3.59071 -0.28292,-9.59766 -1.59961,-9.59766 -0.5225,0 -2.58123,1.31051 -4.57422,2.91211 -5.16127,4.14772 -6.0171,3.15286 -5.35546,-6.22266 0.69025,-9.78093 -0.14898,-11.2207 -6.54102,-11.2207 h -4.52539 l 0.19531,-5.625 c 0.10788,-3.09375 0.46148,-8.009928 0.78516,-10.925781 0.54134,-4.876117 0.42568,-5.354769 -1.44727,-5.949219 -1.42515,-0.452323 -2.67417,-0.04639 -4.16015,1.349609 -1.832,1.721078 -2.27776,1.807446 -3.25586,0.628907 -0.87474,-1.054001 -0.88627,-2.288376 -0.0469,-5.40625 1.06798,-3.96615 1.03177,-4.089056 -2.01758,-6.634766 -1.73103,-1.44513 -4.24347,-2.59375 -5.67382,-2.59375 -1.41182,0 -2.90407,-0.571367 -3.31641,-1.269531 -0.41234,-0.698165 -1.66212,-1.747051 -2.77734,-2.332031 -1.26704,-0.664631 -2.69551,-3.089656 -3.80664,-6.464844 -1.4387,-4.370227 -2.38272,-5.709137 -4.94727,-7.011719 -1.74331,-0.885456 -4.3355,-3.416706 -5.75977,-5.625 -1.42428,-2.208292 -3.7686,-5.542362 -5.21093,-7.408203 -4.17748,-5.404077 -14.76105,-10.116957 -12.90821,-5.748047 1.43143,3.375229 0.98097,5.381316 -1.27734,5.701172 -3.25804,0.46145 -5.78125,-2.334659 -5.78125,-6.404297 0,-4.060776 -2.00536,-6.260058 -6.53516,-7.166016 -1.7985,-0.359701 -4.66696,-2.161102 -6.73632,-4.230468 -2.14318,-2.143173 -4.49899,-3.603516 -5.81446,-3.603516 -1.2165,0 -4.06415,-1.48817 -6.32812,-3.306641 -3.75979,-3.019944 -4.49297,-3.256606 -8.45117,-2.740234 -3.97984,0.519196 -4.37795,0.386571 -4.88282,-1.625 C 265.28599,10.348681 260.84277,7.5 257.43359,7.5 255.35472,7.5 255,7.9098463 255,10.3125 c 0,2.152777 -0.42467,2.8125 -1.80859,2.8125 -2.112,0 -4.38245,-2.039948 -5.22461,-4.6933594 C 247.64046,7.403443 247.07087,6.5625 246.70117,6.5625 c -0.36971,0 -1.42022,-1.265625 -2.33398,-2.8125 -2.93796,-4.9735727 -10.1263,-3.05599543 -11.43164,3.0488281 -1.38301,6.4680549 -3.58389,6.9490699 -6,1.3125 C 225.19699,4.0554566 221.15551,0 218.85156,0 Z m 110.15821,309.23633 c -0.44624,0.21333 -0.45037,0.22543 -0.76172,0.38672 -0.0271,0.0212 -0.05,0.0364 -0.0762,0.0566 0.039,-0.0144 0.0626,-0.0197 0.10351,-0.0352 0.26184,-0.0987 0.98685,-0.5289 0.73438,-0.4082 z M 188.0332,389.25977 c -0.1793,0.14803 -0.2856,0.23414 -0.74414,0.62695 2.4e-4,0.054 -2.3e-4,0.10807 0,0.16211 0.26796,-0.21469 0.54374,-0.46883 0.76563,-0.6836 -0.007,-0.0338 -0.0149,-0.0716 -0.0215,-0.10546 z m -11.5625,25.88085 c -0.10548,0.0474 -0.26342,0.11048 -0.3457,0.1504 -0.18159,0.0881 -0.46134,0.29638 -0.72266,0.5039 0.12119,-0.0479 0.24197,-0.0969 0.36328,-0.14453 0.23306,-0.1728 0.47345,-0.33491 0.70508,-0.50977 z m 151.0918,17.04493 c 0.17632,0.44274 0.32634,0.78692 0.48047,1.14648 0.0939,-0.33828 0.17964,-0.73765 0.26758,-1.11719 -0.24926,-0.01 -0.49887,-0.0172 -0.74805,-0.0293 z" />
</svg>
